SplineFontDB: 3.0
FontName: Bodoni-11-Medium
FullName: Bodoni* 11 Medium
FamilyName: Bodoni* 11 Medium
Weight: Medium
Copyright: Copyright (c) 2017, Owen Earl,,, (EwonRael@yahoo.com)
Version: 001.0
ItalicAngle: 0
UnderlinePosition: -408
UnderlineWidth: 204
Ascent: 3276
Descent: 820
InvalidEm: 0
LayerCount: 2
Layer: 0 0 "Back" 1
Layer: 1 0 "Fore" 0
PreferredKerning: 4
XUID: [1021 31 -699969567 16487490]
FSType: 0
OS2Version: 0
OS2_WeightWidthSlopeOnly: 0
OS2_UseTypoMetrics: 1
CreationTime: 1460762150
ModificationTime: 1573585196
PfmFamily: 17
TTFWeight: 500
TTFWidth: 5
LineGap: 0
VLineGap: 0
OS2TypoAscent: 4194
OS2TypoAOffset: 0
OS2TypoDescent: -820
OS2TypoDOffset: 0
OS2TypoLinegap: 0
OS2WinAscent: 4096
OS2WinAOffset: 0
OS2WinDescent: 1638
OS2WinDOffset: 0
HheadAscent: 4194
HheadAOffset: 0
HheadDescent: -820
HheadDOffset: 0
OS2CapHeight: 3072
OS2XHeight: 1884
OS2FamilyClass: 768
OS2Vendor: 'it* '
OS2UnicodeRanges: 00000001.00000000.00000000.00000000
Lookup: 1 0 0 "'ss02' Style Set 2 lookup 4" { "'ss02' Style Set 2 lookup 4-1"  } ['ss02' ('DFLT' <'dflt' > 'grek' <'dflt' > 'latn' <'dflt' > ) ]
Lookup: 1 0 0 "'ss03' Style Set 3 lookup 5" { "'ss03' Style Set 3 lookup 5-1"  } ['ss03' ('DFLT' <'dflt' > 'grek' <'dflt' > 'latn' <'dflt' > ) ]
Lookup: 1 0 0 "'ss01' Style Set 1 lookup 2" { "'ss01' Style Set 1 lookup 2-1"  } ['ss01' ('DFLT' <'dflt' > 'grek' <'dflt' > 'latn' <'dflt' > ) ]
Lookup: 5 0 0 "'calt' Contextual Alternates lookup 3" { "'calt' Contextual Alternates lookup 3-1"  } ['calt' ('DFLT' <'dflt' > 'grek' <'dflt' > 'latn' <'dflt' > ) ]
Lookup: 4 0 1 "'liga' Standard Ligatures lookup 0" { "'liga' Standard Ligatures lookup 0-1"  } ['liga' ('DFLT' <'dflt' > 'grek' <'dflt' > 'latn' <'dflt' > ) ]
Lookup: 258 0 0 "'kern' Horizontal Kerning lookup 0" { "kerning like they all do" [150,0,6] } ['kern' ('DFLT' <'dflt' > 'grek' <'dflt' > 'latn' <'dflt' > ) ]
MarkAttachClasses: 1
DEI: 91125
KernClass2: 30 27 "kerning like they all do"

StartChar: ampersand
Encoding: 38 38 0
GlifName: ampersand
Width: 3410
Flags: HMW
LayerCount: 2
Fore
SplineSet
1554 1794 m 9
 1518 1860 l 1
 1674 1960 1878 2154 1878 2596 c 0
 1878 2810 1815 3052 1547 3052 c 0
 1277 3052 1182 2858 1182 2652 c 0
 1182 2498 1294 2270 1470 2008 c 2
 2759 82 l 1
 3283 82 l 1
 3283 0 l 1
 2202 0 l 1
 846 2008 l 2
 740 2164 658 2366 658 2510 c 0
 658 2878 1026 3112 1552 3112 c 0
 2042 3112 2383 2908 2383 2590 c 0
 2383 2178 2002 1990 1554 1794 c 9
1127 1667 m 1
 1152 1602 l 1
 879 1454 714 1279 714 888 c 0
 714 482 971 140 1389 140 c 0
 2111 140 2762 994 2850 1844 c 1
 2932 1844 l 1
 2816 938 2158 -40 1132 -40 c 0
 536 -40 162 253 162 714 c 0
 162 1333 961 1588 1127 1667 c 1
2310 1884 m 1
 3292 1884 l 1
 3292 1802 l 1
 2310 1802 l 1
 2310 1884 l 1
EndSplineSet
EndChar

StartChar: period
Encoding: 46 46 1
GlifName: period
Width: 941
Flags: HMW
LayerCount: 2
Fore
SplineSet
164 266 m 0
 164 434 303 574 471 574 c 0
 639 574 778 434 778 266 c 0
 778 98 639 -41 471 -41 c 0
 303 -41 164 98 164 266 c 0
EndSplineSet
EndChar

StartChar: zero
Encoding: 48 48 2
GlifName: zero
Width: 2621
Flags: HMW
LayerCount: 2
Fore
SplineSet
1311 -41 m 0
 623 -41 164 654 164 1536 c 0
 164 2418 663 3113 1311 3113 c 0
 1959 3113 2458 2418 2458 1536 c 0
 2458 654 1999 -41 1311 -41 c 0
1311 3043 m 0
 865 3043 758 2332 758 1536 c 0
 758 740 823 29 1311 29 c 0
 1799 29 1864 740 1864 1536 c 0
 1864 2332 1768 3043 1311 3043 c 0
EndSplineSet
EndChar

StartChar: one
Encoding: 49 49 3
GlifName: one
Width: 1904
VWidth: 4730
Flags: HMW
LayerCount: 2
Fore
SplineSet
205 82 m 1
 1700 82 l 1
 1700 0 l 1
 205 0 l 1
 205 82 l 1
274 3072 m 1
 1249 3072 l 1
 1249 41 l 1
 737 41 l 1
 737 2990 l 1
 274 2990 l 1
 274 3072 l 1
EndSplineSet
EndChar

StartChar: two
Encoding: 50 50 4
GlifName: two
Width: 2354
VWidth: 4730
Flags: HMW
LayerCount: 2
Fore
SplineSet
2212 0 m 1
 164 0 l 1
 164 338 l 1
 1040 1126 l 2
 1373 1428 1594 1796 1594 2212 c 0
 1594 2700 1365 2946 954 2946 c 0
 559 2946 323 2650 307 2294 c 1
 352 2378 447 2446 548 2446 c 0
 708 2446 852 2328 852 2154 c 0
 852 1959 696 1836 522 1836 c 0
 348 1836 207 1964 207 2249 c 0
 207 2728 555 3113 1177 3113 c 0
 1785 3113 2126 2755 2126 2335 c 0
 2126 1895 1827 1670 1565 1448 c 2
 508 492 l 1
 2130 492 l 1
 2130 799 l 1
 2212 799 l 1
 2212 0 l 1
EndSplineSet
EndChar

StartChar: three
Encoding: 51 51 5
GlifName: three
Width: 2236
VWidth: 4730
Flags: HMW
LayerCount: 2
Fore
SplineSet
2072 830 m 0
 2072 288 1595 -41 997 -41 c 0
 384 -41 102 292 102 608 c 0
 102 807 230 930 404 930 c 0
 558 930 676 824 676 646 c 0
 676 484 537 369 387 369 c 0
 321 369 282 392 266 396 c 1
 317 260 527 76 895 76 c 0
 1361 76 1536 414 1536 830 c 0
 1536 1164 1421 1622 780 1622 c 1
 780 1679 l 1
 1788 1679 2072 1292 2072 830 c 0
780 1642 m 1
 780 1700 l 1
 1380 1700 1414 2149 1414 2421 c 0
 1414 2735 1250 2997 946 2997 c 0
 676 2997 502 2859 430 2757 c 1
 447 2761 475 2771 520 2771 c 0
 660 2771 794 2668 794 2500 c 0
 794 2310 643 2214 510 2214 c 0
 356 2214 225 2315 225 2509 c 0
 225 2835 610 3109 1028 3109 c 0
 1524 3109 1950 2861 1950 2410 c 0
 1950 2000 1746 1642 780 1642 c 1
EndSplineSet
EndChar

StartChar: four
Encoding: 52 52 6
GlifName: four
Width: 2529
VWidth: 4730
Flags: HMW
LayerCount: 2
Fore
SplineSet
2345 82 m 1
 2345 0 l 1
 1136 0 l 1
 1136 82 l 1
 1526 82 l 1
 1526 2750 l 1
 299 922 l 1
 2488 922 l 1
 2488 840 l 1
 143 840 l 1
 1638 3072 l 1
 2038 3072 l 1
 2038 82 l 1
 2345 82 l 1
EndSplineSet
Substitution2: "'ss03' Style Set 3 lookup 5-1" four.alt
EndChar

StartChar: five
Encoding: 53 53 7
GlifName: five
Width: 2119
VWidth: 4730
Flags: HMW
LayerCount: 2
Fore
SplineSet
1854 2580 m 1
 336 2580 l 1
 336 1503 l 1
 254 1503 l 1
 254 3072 l 1
 1772 3072 l 1
 1772 3297 l 1
 1854 3297 l 1
 1854 2580 l 1
286 303 m 1
 327 219 520 49 813 49 c 0
 1300 49 1444 501 1444 927 c 0
 1444 1435 1265 1775 911 1775 c 0
 625 1775 436 1617 364 1503 c 1
 294 1503 l 1
 370 1675 608 1894 1032 1894 c 0
 1610 1894 1996 1541 1996 927 c 0
 1996 385 1534 -41 885 -41 c 0
 457 -41 82 212 82 548 c 0
 82 747 218 864 376 864 c 0
 519 864 672 773 672 578 c 0
 672 404 526 287 376 287 c 0
 331 287 311 295 286 303 c 1
EndSplineSet
EndChar

StartChar: six
Encoding: 54 54 8
GlifName: six
Width: 2395
VWidth: 4730
Flags: HMW
LayerCount: 2
Fore
SplineSet
1730 1024 m 0
 1730 1624 1549 1888 1235 1888 c 0
 946 1888 747 1639 747 1147 c 1
 690 1147 l 1
 690 1637 830 2012 1346 2012 c 0
 1780 2012 2274 1720 2274 1024 c 0
 2274 410 1893 -41 1255 -41 c 0
 617 -41 205 410 205 1270 c 0
 205 2265 971 3113 1966 3113 c 1
 1966 3043 l 1
 1242 3043 758 2221 758 1516 c 1
 747 1147 l 1
 747 547 883 41 1268 41 c 0
 1653 41 1730 506 1730 1024 c 0
EndSplineSet
EndChar

StartChar: seven
Encoding: 55 55 9
GlifName: seven
Width: 2139
VWidth: 4730
Flags: HMW
LayerCount: 2
Fore
SplineSet
647 342 m 0
 647 666 950 1075 1204 1518 c 0
 1357 1790 1564 2204 1742 2560 c 1
 246 2560 l 1
 246 2253 l 1
 164 2253 l 1
 164 3072 l 1
 2100 3072 l 1
 2100 3072 1603 2082 1305 1528 c 0
 1110 1162 1080 1038 1080 868 c 0
 1080 590 1302 528 1302 289 c 0
 1302 107 1189 -41 978 -41 c 0
 787 -41 647 48 647 342 c 0
EndSplineSet
EndChar

StartChar: eight
Encoding: 56 56 10
GlifName: eight
Width: 2354
VWidth: 4730
Flags: HMW
LayerCount: 2
Fore
SplineSet
778 2294 m 0
 778 1899 873 1618 1177 1618 c 0
 1481 1618 1576 1899 1576 2294 c 0
 1576 2679 1481 3031 1177 3031 c 0
 873 3031 778 2679 778 2294 c 0
246 2294 m 0
 246 2745 569 3113 1177 3113 c 0
 1785 3113 2110 2745 2110 2294 c 0
 2110 1843 1785 1556 1177 1556 c 0
 569 1556 246 1843 246 2294 c 0
696 778 m 0
 696 372 822 41 1177 41 c 0
 1532 41 1658 372 1658 778 c 0
 1658 1184 1532 1536 1177 1536 c 0
 822 1536 696 1184 696 778 c 0
164 778 m 0
 164 1270 487 1597 1177 1597 c 0
 1867 1597 2192 1270 2192 778 c 0
 2192 286 1867 -41 1177 -41 c 0
 487 -41 164 286 164 778 c 0
EndSplineSet
EndChar

StartChar: A
Encoding: 65 65 12
GlifName: A_
Width: 3107
Flags: HMW
LayerCount: 2
Fore
SplineSet
77 82 m 1
 978 82 l 1
 978 0 l 1
 77 0 l 1
 77 82 l 1
1756 82 m 1
 3046 82 l 1
 3046 0 l 1
 1756 0 l 1
 1756 82 l 1
773 1044 m 1
 2125 1044 l 1
 2125 963 l 1
 773 963 l 1
 773 1044 l 1
1354 2506 m 1
 482 0 l 1
 380 0 l 1
 1490 3133 l 1
 1674 3133 l 1
 2760 0 l 1
 2166 0 l 1
 1354 2506 l 1
EndSplineSet
EndChar

StartChar: B
Encoding: 66 66 13
GlifName: B_
Width: 2718
Flags: HMW
LayerCount: 2
Fore
SplineSet
1367 1556 m 2
 896 1556 l 1
 896 1618 l 1
 1326 1618 l 2
 1626 1618 1900 1786 1900 2273 c 0
 1900 2760 1626 2990 1326 2990 c 2
 77 2990 l 1
 77 3072 l 1
 1367 3072 l 2
 2016 3072 2432 2846 2432 2314 c 0
 2432 1792 2057 1556 1367 1556 c 2
446 3072 m 1
 958 3072 l 1
 958 0 l 1
 446 0 l 1
 446 3072 l 1
1449 0 m 2
 77 0 l 1
 77 82 l 1
 1368 82 l 2
 1710 82 1982 373 1982 860 c 0
 1982 1347 1710 1536 1368 1536 c 2
 896 1536 l 1
 896 1597 l 1
 1449 1597 l 2
 2057 1597 2556 1392 2556 840 c 0
 2556 236 2139 0 1449 0 c 2
EndSplineSet
EndChar

StartChar: C
Encoding: 67 67 14
GlifName: C_
Width: 2810
Flags: HMW
LayerCount: 2
Fore
SplineSet
2544 3072 m 1
 2606 3072 l 1
 2606 2201 l 1
 2507 2426 2412 2644 2268 2836 c 1
 2544 3072 l 1
2606 2201 m 1
 2524 2201 l 1
 2412 2681 2080 3006 1654 3006 c 0
 992 3006 772 2281 772 1536 c 0
 772 791 992 66 1654 66 c 0
 2172 66 2454 433 2566 871 c 1
 2647 871 l 1
 2585 347 2198 -41 1612 -41 c 0
 740 -41 179 623 179 1536 c 0
 179 2449 740 3113 1612 3113 c 0
 2136 3113 2534 2725 2606 2201 c 1
2647 871 m 1
 2647 0 l 1
 2586 0 l 1
 2309 266 l 1
 2480 489 2571 644 2647 871 c 1
EndSplineSet
EndChar

StartChar: D
Encoding: 68 68 15
GlifName: D_
Width: 2984
Flags: HMW
LayerCount: 2
Fore
SplineSet
446 3072 m 1
 958 3072 l 1
 958 0 l 1
 446 0 l 1
 446 3072 l 1
1306 0 m 2
 77 0 l 1
 77 82 l 1
 1306 82 l 2
 1998 82 2227 760 2227 1536 c 0
 2227 2312 1958 2990 1306 2990 c 2
 77 2990 l 1
 77 3072 l 1
 1306 3072 l 2
 2250 3072 2820 2428 2820 1536 c 0
 2820 644 2209 0 1306 0 c 2
EndSplineSet
EndChar

StartChar: E
Encoding: 69 69 16
GlifName: E_
Width: 2483
Flags: HMW
LayerCount: 2
Fore
SplineSet
2278 922 m 1
 2360 922 l 1
 2360 0 l 1
 77 0 l 1
 77 82 l 1
 1500 82 l 2
 2061 82 2247 402 2278 922 c 1
446 3072 m 1
 958 3072 l 1
 958 0 l 1
 446 0 l 1
 446 3072 l 1
77 3072 m 1
 2319 3072 l 1
 2319 2232 l 1
 2237 2232 l 1
 2206 2670 2020 2990 1541 2990 c 2
 77 2990 l 1
 77 3072 l 1
1572 1108 m 1
 1541 1382 1385 1548 1152 1548 c 2
 845 1548 l 1
 845 1630 l 1
 1152 1630 l 2
 1385 1630 1541 1776 1572 2050 c 1
 1654 2050 l 1
 1654 1108 l 1
 1572 1108 l 1
EndSplineSet
EndChar

StartChar: F
Encoding: 70 70 17
GlifName: F_
Width: 2390
Flags: HMW
LayerCount: 2
Fore
SplineSet
77 3072 m 1
 2268 3072 l 1
 2268 2232 l 1
 2186 2232 l 1
 2155 2670 1988 2990 1520 2990 c 2
 77 2990 l 1
 77 3072 l 1
77 82 m 1
 1366 82 l 1
 1366 0 l 1
 77 0 l 1
 77 82 l 1
446 3072 m 1
 958 3072 l 1
 958 0 l 1
 446 0 l 1
 446 3072 l 1
1592 1057 m 1
 1561 1331 1437 1487 1101 1487 c 2
 835 1487 l 1
 835 1569 l 1
 1101 1569 l 2
 1437 1569 1561 1704 1592 1978 c 1
 1674 1978 l 1
 1674 1057 l 1
 1592 1057 l 1
EndSplineSet
EndChar

StartChar: G
Encoding: 71 71 18
GlifName: G_
Width: 3015
Flags: HMW
LayerCount: 2
Fore
SplineSet
2648 2201 m 1
 2564 2424 2417 2661 2288 2846 c 1
 2586 3072 l 1
 2648 3072 l 1
 2648 2201 l 1
1766 1208 m 1
 2975 1208 l 1
 2975 1126 l 1
 1766 1126 l 1
 1766 1208 l 1
2196 1147 m 1
 2750 1147 l 1
 2750 656 l 1
 2556 388 2240 -41 1572 -41 c 0
 689 -41 179 602 179 1536 c 0
 179 2470 803 3113 1634 3113 c 0
 2158 3113 2648 2705 2648 2201 c 1
 2566 2201 l 1
 2494 2639 2130 3006 1684 3006 c 0
 1022 3006 772 2281 772 1536 c 0
 772 791 931 52 1572 52 c 0
 1998 52 2144 381 2196 512 c 1
 2196 1147 l 1
EndSplineSet
EndChar

StartChar: H
Encoding: 72 72 19
GlifName: H_
Width: 3127
Flags: HMW
LayerCount: 2
Fore
SplineSet
876 1556 m 1
 2268 1556 l 1
 2268 1475 l 1
 876 1475 l 1
 876 1556 l 1
1797 82 m 1
 3066 82 l 1
 3066 0 l 1
 1797 0 l 1
 1797 82 l 1
77 82 m 1
 1346 82 l 1
 1346 0 l 1
 77 0 l 1
 77 82 l 1
1797 3072 m 1
 3066 3072 l 1
 3066 2990 l 1
 1797 2990 l 1
 1797 3072 l 1
77 3072 m 1
 1346 3072 l 1
 1346 2990 l 1
 77 2990 l 1
 77 3072 l 1
2186 3072 m 1
 2698 3072 l 1
 2698 0 l 1
 2186 0 l 1
 2186 3072 l 1
446 3072 m 1
 958 3072 l 1
 958 0 l 1
 446 0 l 1
 446 3072 l 1
EndSplineSet
EndChar

StartChar: I
Encoding: 73 73 20
GlifName: I_
Width: 1591
Flags: HMW
LayerCount: 2
Fore
SplineSet
77 82 m 1
 1530 82 l 1
 1530 0 l 1
 77 0 l 1
 77 82 l 1
77 3072 m 1
 1530 3072 l 1
 1530 2990 l 1
 77 2990 l 1
 77 3072 l 1
527 3072 m 1
 1040 3072 l 1
 1040 0 l 1
 527 0 l 1
 527 3072 l 1
EndSplineSet
EndChar

StartChar: J
Encoding: 74 74 21
GlifName: J_
Width: 1964
Flags: HMW
LayerCount: 2
Fore
SplineSet
449 3072 m 1
 1904 3072 l 1
 1904 2990 l 1
 449 2990 l 1
 449 3072 l 1
982 3072 m 1
 1494 3072 l 1
 1494 696 l 1
 1371 358 1181 -123 634 -123 c 0
 268 -123 56 133 56 389 c 0
 56 592 198 716 362 716 c 0
 505 716 652 613 652 414 c 0
 652 230 513 114 345 114 c 0
 326 114 301 117 280 122 c 1
 338 53 446 -39 624 -39 c 0
 915 -39 982 205 982 778 c 2
 982 3072 l 1
EndSplineSet
Substitution2: "'ss02' Style Set 2 lookup 4-1" J.alt
EndChar

StartChar: K
Encoding: 75 75 22
GlifName: K_
Width: 2964
Flags: HMW
LayerCount: 2
Fore
SplineSet
77 82 m 1
 1346 82 l 1
 1346 0 l 1
 77 0 l 1
 77 82 l 1
77 3072 m 1
 1366 3072 l 1
 1366 2990 l 1
 77 2990 l 1
 77 3072 l 1
446 3072 m 1
 958 3072 l 1
 958 0 l 1
 446 0 l 1
 446 3072 l 1
659 889 m 1
 536 889 l 1
 2272 3064 l 1
 2396 3064 l 1
 659 889 l 1
1572 82 m 1
 2944 82 l 1
 2944 0 l 1
 1572 0 l 1
 1572 82 l 1
2759 2990 m 1
 1776 2990 l 1
 1776 3072 l 1
 2759 3072 l 1
 2759 2990 l 1
2624 0 m 1
 2010 0 l 1
 1128 1566 l 1
 1472 1947 l 1
 2624 0 l 1
EndSplineSet
EndChar

StartChar: L
Encoding: 76 76 23
GlifName: L_
Width: 2426
Flags: HMW
LayerCount: 2
Fore
SplineSet
446 3072 m 1
 958 3072 l 1
 958 0 l 1
 446 0 l 1
 446 3072 l 1
77 3072 m 1
 1326 3072 l 1
 1326 2990 l 1
 77 2990 l 1
 77 3072 l 1
2345 0 m 1
 77 0 l 1
 77 82 l 1
 1486 82 l 2
 2108 82 2233 402 2264 922 c 1
 2345 922 l 1
 2345 0 l 1
EndSplineSet
EndChar

StartChar: M
Encoding: 77 77 24
GlifName: M_
Width: 3496
Flags: HMW
LayerCount: 2
Fore
SplineSet
3436 3072 m 1
 3436 2990 l 1
 3148 2990 l 1
 3148 0 l 1
 2637 0 l 1
 2637 3072 l 1
 3436 3072 l 1
97 82 m 1
 761 82 l 1
 761 0 l 1
 97 0 l 1
 97 82 l 1
2309 82 m 1
 3436 82 l 1
 3436 0 l 1
 2309 0 l 1
 2309 82 l 1
1786 705 m 1
 2588 3072 l 1
 2678 3072 l 1
 1625 -41 l 1
 1535 -41 l 1
 396 3072 l 1
 912 3072 l 1
 1786 705 l 1
384 2990 m 1
 77 2990 l 1
 77 3072 l 1
 474 3072 l 1
 474 0 l 1
 384 0 l 1
 384 2990 l 1
EndSplineSet
EndChar

StartChar: N
Encoding: 78 78 25
GlifName: N_
Width: 3046
Flags: HMW
LayerCount: 2
Fore
SplineSet
2464 3072 m 1
 2556 3072 l 1
 2556 -41 l 1
 2412 -41 l 1
 487 3072 l 1
 1102 3072 l 1
 2464 848 l 1
 2464 3072 l 1
2014 3072 m 1
 2986 3072 l 1
 2986 2990 l 1
 2014 2990 l 1
 2014 3072 l 1
77 82 m 1
 1068 82 l 1
 1068 0 l 1
 77 0 l 1
 77 82 l 1
507 2990 m 1
 77 2990 l 1
 77 3072 l 1
 597 3072 l 1
 597 0 l 1
 507 0 l 1
 507 2990 l 1
EndSplineSet
EndChar

StartChar: O
Encoding: 79 79 26
GlifName: O_
Width: 3045
Flags: HMW
LayerCount: 2
Fore
SplineSet
1530 -41 m 0
 678 -41 179 654 179 1536 c 0
 179 2418 718 3113 1530 3113 c 0
 2342 3113 2883 2418 2883 1536 c 0
 2883 654 2382 -41 1530 -41 c 0
1530 3043 m 0
 930 3043 772 2332 772 1536 c 0
 772 740 888 29 1530 29 c 0
 2172 29 2288 740 2288 1536 c 0
 2288 2332 2130 3043 1530 3043 c 0
EndSplineSet
EndChar

StartChar: P
Encoding: 80 80 27
GlifName: P_
Width: 2626
Flags: HMW
LayerCount: 2
Fore
SplineSet
446 3072 m 1
 958 3072 l 1
 958 0 l 1
 446 0 l 1
 446 3072 l 1
77 82 m 1
 1326 82 l 1
 1326 0 l 1
 77 0 l 1
 77 82 l 1
1387 1352 m 2
 824 1352 l 1
 824 1434 l 1
 1346 1434 l 2
 1718 1434 1910 1847 1910 2212 c 0
 1910 2577 1718 2990 1346 2990 c 2
 77 2990 l 1
 77 3072 l 1
 1387 3072 l 2
 2149 3072 2483 2744 2483 2212 c 0
 2483 1680 2149 1352 1387 1352 c 2
EndSplineSet
EndChar

StartChar: Q
Encoding: 81 81 28
GlifName: Q_
Width: 3045
Flags: HMW
LayerCount: 2
Fore
SplineSet
1530 -41 m 0
 678 -41 179 654 179 1536 c 0
 179 2418 718 3113 1530 3113 c 0
 2342 3113 2883 2418 2883 1536 c 0
 2883 654 2382 -41 1530 -41 c 0
1530 3043 m 0
 930 3043 772 2332 772 1536 c 0
 772 740 888 29 1530 29 c 0
 2172 29 2288 740 2288 1536 c 0
 2288 2332 2130 3043 1530 3043 c 0
2288 -942 m 1
 2288 -1024 l 1
 1344 -1024 1224 -750 1224 10 c 1
 1408 -7 1580 -20 1817 10 c 1
 1817 -735 1882 -942 2288 -942 c 1
EndSplineSet
EndChar

StartChar: R
Encoding: 82 82 29
GlifName: R_
Width: 2943
Flags: HMW
LayerCount: 2
Fore
SplineSet
1470 1565 m 2
 814 1565 l 1
 814 1618 l 1
 1418 1618 l 2
 1811 1618 2022 1848 2022 2314 c 0
 2022 2780 1811 2990 1418 2990 c 2
 77 2990 l 1
 77 3072 l 1
 1470 3072 l 2
 2119 3072 2555 2846 2555 2314 c 0
 2555 1782 2160 1565 1470 1565 c 2
77 82 m 1
 1449 82 l 1
 1449 0 l 1
 77 0 l 1
 77 82 l 1
506 3072 m 1
 1019 3072 l 1
 1019 0 l 1
 506 0 l 1
 506 3072 l 1
2903 46 m 1
 2837 9 2660 -25 2472 -25 c 0
 1436 -25 2416 1536 1408 1536 c 2
 814 1536 l 1
 814 1577 l 1
 1612 1577 l 2
 2986 1577 2174 83 2678 83 c 0
 2764 83 2821 99 2878 124 c 1
 2903 46 l 1
EndSplineSet
Substitution2: "'ss01' Style Set 1 lookup 2-1" R.alt
EndChar

StartChar: S
Encoding: 83 83 30
GlifName: S_
Width: 2369
Flags: HMW
LayerCount: 2
Fore
SplineSet
2043 2232 m 1
 1961 2232 l 1
 1838 2719 1536 3016 1140 3016 c 0
 778 3016 578 2823 578 2519 c 0
 578 1792 2207 1987 2207 850 c 0
 2207 298 1802 -61 1224 -61 c 0
 585 -61 308 368 179 860 c 1
 261 860 l 1
 374 454 654 32 1182 32 c 0
 1596 32 1848 260 1848 635 c 0
 1848 1444 220 1198 220 2324 c 0
 220 2806 632 3113 1098 3113 c 0
 1592 3113 1920 2810 2043 2232 c 1
1982 3113 m 1
 2043 3113 l 1
 2043 2232 l 1
 1949 2447 1850 2638 1725 2846 c 1
 1982 3113 l 1
241 -41 m 1
 179 -41 l 1
 179 860 l 1
 279 639 379 430 495 242 c 1
 241 -41 l 1
EndSplineSet
EndChar

StartChar: T
Encoding: 84 84 31
GlifName: T_
Width: 2677
Flags: HMW
LayerCount: 2
Fore
SplineSet
640 82 m 1
 2054 82 l 1
 2054 0 l 1
 640 0 l 1
 640 82 l 1
1090 3031 m 1
 1602 3031 l 1
 1602 0 l 1
 1090 0 l 1
 1090 3031 l 1
1940 2990 m 2
 752 2990 l 2
 294 2990 190 2640 159 2120 c 1
 77 2120 l 1
 77 3072 l 1
 2616 3072 l 1
 2616 2120 l 1
 2534 2120 l 1
 2503 2640 2398 2990 1940 2990 c 2
EndSplineSet
EndChar

StartChar: U
Encoding: 85 85 32
GlifName: U_
Width: 2902
Flags: HMW
LayerCount: 2
Fore
SplineSet
2044 3072 m 1
 2842 3072 l 1
 2842 2990 l 1
 2044 2990 l 1
 2044 3072 l 1
77 3072 m 1
 1366 3072 l 1
 1366 2990 l 1
 77 2990 l 1
 77 3072 l 1
2392 3072 m 1
 2474 3072 l 1
 2474 942 l 2
 2474 266 2168 -61 1510 -61 c 0
 770 -61 446 233 446 942 c 2
 446 3072 l 1
 958 3072 l 1
 958 983 l 2
 958 442 1074 52 1633 52 c 0
 2069 52 2392 319 2392 942 c 2
 2392 3072 l 1
EndSplineSet
EndChar

StartChar: V
Encoding: 86 86 33
GlifName: V_
Width: 3066
Flags: HMW
LayerCount: 2
Fore
SplineSet
3026 2990 m 1
 2125 2990 l 1
 2125 3072 l 1
 3026 3072 l 1
 3026 2990 l 1
1388 2990 m 1
 56 2990 l 1
 56 3072 l 1
 1388 3072 l 1
 1388 2990 l 1
1748 566 m 1
 2620 3072 l 1
 2723 3072 l 1
 1613 -61 l 1
 1429 -61 l 1
 343 3072 l 1
 938 3072 l 1
 1748 566 l 1
EndSplineSet
EndChar

StartChar: W
Encoding: 87 87 34
GlifName: W_
Width: 4254
Flags: HMW
LayerCount: 2
Fore
SplineSet
2319 1946 m 1
 1634 -41 l 1
 1450 -41 l 1
 400 3072 l 1
 966 3072 l 1
 1771 647 l 1
 2252 2036 l 1
 2319 1946 l 1
2480 1926 m 1
 2412 2016 l 1
 2786 3072 l 1
 2884 3072 l 1
 2480 1926 l 1
4214 2990 m 1
 3394 2990 l 1
 3394 3072 l 1
 4214 3072 l 1
 4214 2990 l 1
2126 3072 m 1
 2931 647 l 1
 3774 3072 l 1
 3872 3072 l 1
 2794 -41 l 1
 2641 -41 l 1
 1592 3072 l 1
 2126 3072 l 1
3200 2990 m 1
 56 2990 l 1
 56 3072 l 1
 3200 3072 l 1
 3200 2990 l 1
EndSplineSet
EndChar

StartChar: X
Encoding: 88 88 35
GlifName: X_
Width: 3127
Flags: HMW
LayerCount: 2
Fore
SplineSet
1609 1544 m 1
 1486 1544 l 1
 2416 3064 l 1
 2518 3064 l 1
 1609 1544 l 1
523 0 m 1
 409 0 l 1
 1502 1708 l 1
 1612 1708 l 1
 523 0 l 1
1818 82 m 1
 3088 82 l 1
 3088 0 l 1
 1818 0 l 1
 1818 82 l 1
56 82 m 1
 1039 82 l 1
 1039 0 l 1
 56 0 l 1
 56 82 l 1
1470 2990 m 1
 200 2990 l 1
 200 3072 l 1
 1470 3072 l 1
 1470 2990 l 1
2862 2990 m 1
 1960 2990 l 1
 1960 3072 l 1
 2862 3072 l 1
 2862 2990 l 1
2824 0 m 1
 2211 0 l 1
 446 3072 l 1
 1044 3072 l 1
 2824 0 l 1
EndSplineSet
EndChar

StartChar: Y
Encoding: 89 89 36
GlifName: Y_
Width: 2964
Flags: HMW
LayerCount: 2
Fore
SplineSet
2924 2990 m 1
 2064 2990 l 1
 2064 3072 l 1
 2924 3072 l 1
 2924 2990 l 1
1366 2990 m 1
 56 2990 l 1
 56 3072 l 1
 1366 3072 l 1
 1366 2990 l 1
906 82 m 1
 2196 82 l 1
 2196 0 l 1
 906 0 l 1
 906 82 l 1
1741 1668 m 1
 2560 3064 l 1
 2662 3064 l 1
 1787 1569 l 1
 1787 0 l 1
 1275 0 l 1
 1275 1475 l 1
 302 3072 l 1
 896 3072 l 1
 1741 1668 l 1
EndSplineSet
EndChar

StartChar: Z
Encoding: 90 90 37
GlifName: Z_
Width: 2410
Flags: HMW
LayerCount: 2
Fore
SplineSet
138 3072 m 1
 2226 3072 l 1
 2226 2990 l 1
 630 82 l 1
 1470 82 l 2
 2031 82 2145 289 2186 809 c 1
 2268 809 l 1
 2268 0 l 1
 56 0 l 1
 56 82 l 1
 1654 2990 l 1
 938 2990 l 2
 377 2990 261 2783 220 2345 c 1
 138 2345 l 1
 138 3072 l 1
EndSplineSet
EndChar

StartChar: a
Encoding: 97 97 38
GlifName: a
Width: 2286
VWidth: 4730
Flags: HMW
LayerCount: 2
Fore
SplineSet
2267 258 m 1
 2173 53 1981 -41 1774 -41 c 0
 1550 -41 1346 58 1346 310 c 2
 1346 1249 l 2
 1346 1543 1290 1821 972 1821 c 0
 812 1821 699 1776 643 1732 c 1
 737 1717 874 1658 874 1496 c 0
 874 1322 715 1233 582 1233 c 0
 428 1233 318 1330 318 1488 c 0
 318 1747 674 1917 1068 1917 c 0
 1713 1917 1816 1601 1816 1249 c 2
 1816 256 l 2
 1816 174 1870 112 1968 112 c 0
 2042 112 2128 152 2206 291 c 1
 2267 258 l 1
1070 1069 m 2
 1558 1069 l 1
 1558 987 l 1
 1142 987 l 2
 862 987 694 783 694 529 c 0
 694 317 775 147 969 147 c 0
 1161 147 1346 327 1346 741 c 1
 1408 741 l 1
 1408 233 1181 -41 726 -41 c 0
 402 -41 174 160 174 463 c 0
 174 807 488 1069 1070 1069 c 2
EndSplineSet
EndChar

StartChar: b
Encoding: 98 98 39
GlifName: b
Width: 2510
VWidth: 4730
Flags: HMW
LayerCount: 2
Fore
SplineSet
788 942 m 0
 788 1565 1034 1921 1489 1921 c 0
 1935 1921 2358 1556 2358 942 c 0
 2358 328 1935 -41 1489 -41 c 0
 1034 -41 788 319 788 942 c 0
850 942 m 0
 850 372 1112 87 1372 87 c 0
 1665 87 1814 372 1814 942 c 0
 1814 1512 1665 1793 1372 1793 c 0
 1112 1793 850 1512 850 942 c 0
378 2990 m 1
 92 2990 l 1
 92 3072 l 1
 850 3072 l 1
 850 0 l 1
 92 0 l 1
 92 82 l 1
 378 82 l 1
 378 2990 l 1
EndSplineSet
EndChar

StartChar: c
Encoding: 99 99 40
GlifName: c
Width: 2077
VWidth: 4730
Flags: HMW
LayerCount: 2
Fore
SplineSet
1666 1620 m 1
 1620 1714 1441 1836 1210 1836 c 0
 774 1836 706 1327 706 942 c 0
 706 475 811 66 1216 66 c 0
 1512 66 1704 287 1806 586 c 1
 1896 586 l 1
 1790 230 1563 -41 1129 -41 c 0
 561 -41 154 308 154 942 c 0
 154 1494 504 1925 1153 1925 c 0
 1581 1925 1879 1688 1879 1382 c 0
 1879 1194 1754 1092 1600 1092 c 0
 1467 1092 1314 1167 1314 1367 c 0
 1314 1541 1450 1633 1580 1633 c 0
 1627 1633 1654 1623 1666 1620 c 1
EndSplineSet
EndChar

StartChar: d
Encoding: 100 100 41
GlifName: d
Width: 2510
VWidth: 4730
Flags: HMW
LayerCount: 2
Fore
SplineSet
1722 942 m 0
 1722 319 1477 -41 1022 -41 c 0
 576 -41 154 328 154 942 c 0
 154 1556 576 1921 1022 1921 c 0
 1477 1921 1722 1565 1722 942 c 0
1660 942 m 0
 1660 1532 1391 1793 1140 1793 c 0
 847 1793 696 1522 696 942 c 0
 696 362 857 97 1150 97 c 0
 1401 97 1660 352 1660 942 c 0
2419 82 m 1
 2419 0 l 1
 1660 0 l 1
 1660 2990 l 1
 1374 2990 l 1
 1374 3072 l 1
 2132 3072 l 1
 2132 82 l 1
 2419 82 l 1
EndSplineSet
EndChar

StartChar: e
Encoding: 101 101 42
GlifName: e
Width: 2136
VWidth: 4730
Flags: HMW
LayerCount: 2
Fore
SplineSet
428 1028 m 1
 428 1110 l 1
 1474 1110 l 1
 1470 1410 1435 1843 1121 1843 c 0
 777 1843 686 1429 686 962 c 0
 686 464 798 52 1214 52 c 0
 1564 52 1815 287 1917 586 c 1
 1999 586 l 1
 1893 230 1610 -41 1134 -41 c 0
 576 -41 154 318 154 942 c 0
 154 1566 563 1925 1121 1925 c 0
 1731 1925 1995 1474 1995 1028 c 1
 428 1028 l 1
EndSplineSet
EndChar

StartChar: f
Encoding: 102 102 43
GlifName: f
Width: 1545
VWidth: 4730
Flags: HMW
LayerCount: 2
Fore
SplineSet
72 82 m 1
 1392 82 l 1
 1392 0 l 1
 72 0 l 1
 72 82 l 1
72 1884 m 1
 1474 1884 l 1
 1474 1802 l 1
 72 1802 l 1
 72 1884 l 1
1684 2905 m 1
 1641 2952 1548 3031 1350 3031 c 0
 1022 3031 901 2732 901 2212 c 2
 901 0 l 1
 440 0 l 1
 440 2097 l 2
 440 2655 776 3113 1339 3113 c 0
 1681 3113 1874 2890 1874 2676 c 0
 1874 2488 1754 2382 1600 2382 c 0
 1467 2382 1318 2460 1318 2644 c 0
 1318 2825 1451 2917 1607 2917 c 0
 1643 2917 1681 2905 1684 2905 c 1
EndSplineSet
EndChar

StartChar: g
Encoding: 103 103 44
GlifName: g
Width: 2465
VWidth: 4730
Flags: HMW
LayerCount: 2
Fore
SplineSet
223 303 m 0
 223 627 684 725 1073 725 c 1
 1065 688 l 1
 889 688 543 619 543 454 c 0
 543 318 725 314 950 314 c 0
 1093 314 1157 318 1272 318 c 0
 1579 318 1936 221 1936 -336 c 0
 1936 -832 1526 -1065 1024 -1065 c 0
 550 -1065 92 -911 92 -522 c 0
 92 -149 492 -39 676 -39 c 2
 716 -39 l 1
 552 -129 533 -308 533 -418 c 0
 533 -718 687 -969 1059 -969 c 0
 1434 -969 1708 -814 1708 -448 c 0
 1708 -227 1556 -88 1290 -88 c 0
 1194 -88 975 -88 885 -88 c 0
 516 -88 223 18 223 303 c 0
686 1290 m 0
 686 966 706 737 979 737 c 0
 1180 737 1272 966 1272 1290 c 0
 1272 1614 1180 1843 979 1843 c 0
 778 1843 686 1614 686 1290 c 0
194 1290 m 0
 194 1741 616 1925 979 1925 c 0
 1342 1925 1764 1741 1764 1290 c 0
 1764 839 1342 655 979 655 c 0
 616 655 194 839 194 1290 c 0
2242 1741 m 1
 2201 1807 2125 1823 2035 1823 c 0
 1870 1823 1659 1728 1577 1372 c 1
 1508 1421 l 1
 1590 1794 1851 1905 2035 1905 c 0
 2275 1905 2394 1744 2394 1588 c 0
 2394 1384 2272 1317 2160 1317 c 0
 2048 1317 1930 1392 1930 1548 c 0
 1930 1674 2016 1765 2146 1765 c 0
 2196 1765 2226 1749 2242 1741 c 1
EndSplineSet
EndChar

StartChar: h
Encoding: 104 104 45
GlifName: h
Width: 2477
VWidth: 4730
Flags: HMW
LayerCount: 2
Fore
SplineSet
1628 1262 m 2
 1628 1606 1542 1765 1342 1765 c 0
 1010 1765 850 1335 850 913 c 1
 788 913 l 1
 788 1331 902 1925 1518 1925 c 0
 1986 1925 2100 1663 2100 1307 c 2
 2100 0 l 1
 1628 0 l 1
 1628 1262 l 2
1372 82 m 1
 2386 82 l 1
 2386 0 l 1
 1372 0 l 1
 1372 82 l 1
92 82 m 1
 1106 82 l 1
 1106 0 l 1
 92 0 l 1
 92 82 l 1
378 2990 m 1
 92 2990 l 1
 92 3072 l 1
 850 3072 l 1
 850 0 l 1
 378 0 l 1
 378 2990 l 1
EndSplineSet
EndChar

StartChar: i
Encoding: 105 105 46
GlifName: i
Width: 1254
VWidth: 4730
Flags: HMW
LayerCount: 2
Fore
SplineSet
112 82 m 1
 1158 82 l 1
 1158 0 l 1
 112 0 l 1
 112 82 l 1
296 2816 m 0
 296 2982 428 3113 594 3113 c 0
 760 3113 891 2982 891 2816 c 0
 891 2650 760 2518 594 2518 c 0
 428 2518 296 2650 296 2816 c 0
400 1802 m 1
 112 1802 l 1
 112 1884 l 1
 870 1884 l 1
 870 0 l 1
 400 0 l 1
 400 1802 l 1
EndSplineSet
EndChar

StartChar: j
Encoding: 106 106 47
GlifName: j
Width: 1257
VWidth: 4730
Flags: HMW
LayerCount: 2
Fore
SplineSet
366 2816 m 0
 366 2982 498 3113 664 3113 c 0
 830 3113 960 2982 960 2816 c 0
 960 2650 830 2518 664 2518 c 0
 498 2518 366 2650 366 2816 c 0
932 1884 m 1
 932 -49 l 2
 932 -586 718 -1065 166 -1065 c 0
 -186 -1065 -400 -855 -400 -603 c 0
 -400 -415 -265 -304 -115 -304 c 0
 18 -304 166 -382 166 -566 c 0
 166 -745 32 -836 -143 -836 c 0
 -158 -836 -178 -832 -178 -832 c 1
 -167 -874 -45 -976 135 -976 c 0
 535 -976 460 -438 460 82 c 2
 460 1802 l 1
 92 1802 l 1
 92 1884 l 1
 932 1884 l 1
EndSplineSet
EndChar

StartChar: k
Encoding: 107 107 48
GlifName: k
Width: 2512
VWidth: 4730
Flags: HMW
LayerCount: 2
Fore
SplineSet
2306 0 m 1
 1720 0 l 1
 858 1080 l 1
 1932 1884 l 1
 2066 1884 l 1
 1282 1274 l 1
 2306 0 l 1
1399 82 m 1
 2462 82 l 1
 2462 0 l 1
 1399 0 l 1
 1399 82 l 1
2292 1802 m 1
 1378 1802 l 1
 1378 1884 l 1
 2292 1884 l 1
 2292 1802 l 1
92 82 m 1
 1188 82 l 1
 1188 0 l 1
 92 0 l 1
 92 82 l 1
460 2990 m 1
 92 2990 l 1
 92 3072 l 1
 932 3072 l 1
 932 0 l 1
 460 0 l 1
 460 2990 l 1
EndSplineSet
EndChar

StartChar: l
Encoding: 108 108 49
GlifName: l
Width: 1392
VWidth: 4730
Flags: HMW
LayerCount: 2
Fore
SplineSet
92 82 m 1
 1300 82 l 1
 1300 0 l 1
 92 0 l 1
 92 82 l 1
460 2990 m 1
 92 2990 l 1
 92 3072 l 1
 932 3072 l 1
 932 0 l 1
 460 0 l 1
 460 2990 l 1
EndSplineSet
EndChar

StartChar: m
Encoding: 109 109 50
GlifName: m
Width: 3563
VWidth: 4730
Flags: HMW
LayerCount: 2
Fore
SplineSet
2018 1307 m 2
 2018 0 l 1
 1546 0 l 1
 1546 1262 l 2
 1546 1606 1499 1776 1307 1776 c 0
 1003 1776 850 1335 850 913 c 1
 788 913 l 1
 788 1331 890 1925 1476 1925 c 0
 1873 1925 2018 1663 2018 1307 c 2
92 82 m 1
 1100 82 l 1
 1100 0 l 1
 92 0 l 1
 92 82 l 1
1296 82 m 1
 2268 82 l 1
 2268 0 l 1
 1296 0 l 1
 1296 82 l 1
2462 82 m 1
 3472 82 l 1
 3472 0 l 1
 2462 0 l 1
 2462 82 l 1
378 1802 m 1
 92 1802 l 1
 92 1884 l 1
 850 1884 l 1
 850 0 l 1
 378 0 l 1
 378 1802 l 1
3184 1307 m 2
 3184 0 l 1
 2714 0 l 1
 2714 1262 l 2
 2714 1606 2637 1776 2443 1776 c 0
 2123 1776 2018 1335 2018 913 c 1
 1948 913 l 1
 1948 1331 1992 1925 2614 1925 c 0
 3011 1925 3184 1663 3184 1307 c 2
EndSplineSet
EndChar

StartChar: n
Encoding: 110 110 51
GlifName: n
Width: 2477
VWidth: 4730
Flags: HMW
LayerCount: 2
Fore
SplineSet
1628 1262 m 2
 1628 1606 1542 1765 1342 1765 c 0
 1046 1765 850 1335 850 913 c 1
 788 913 l 1
 788 1331 932 1925 1518 1925 c 0
 1956 1925 2100 1663 2100 1307 c 2
 2100 0 l 1
 1628 0 l 1
 1628 1262 l 2
1372 82 m 1
 2386 82 l 1
 2386 0 l 1
 1372 0 l 1
 1372 82 l 1
92 82 m 1
 1106 82 l 1
 1106 0 l 1
 92 0 l 1
 92 82 l 1
378 1802 m 1
 92 1802 l 1
 92 1884 l 1
 850 1884 l 1
 850 0 l 1
 378 0 l 1
 378 1802 l 1
EndSplineSet
EndChar

StartChar: o
Encoding: 111 111 52
GlifName: o
Width: 2244
VWidth: 4730
Flags: HMW
LayerCount: 2
Fore
SplineSet
676 942 m 0
 676 506 748 41 1122 41 c 0
 1496 41 1569 506 1569 942 c 0
 1569 1378 1496 1843 1122 1843 c 0
 748 1843 676 1378 676 942 c 0
154 942 m 0
 154 1474 524 1925 1122 1925 c 0
 1720 1925 2091 1474 2091 942 c 0
 2091 410 1720 -41 1122 -41 c 0
 524 -41 154 410 154 942 c 0
EndSplineSet
EndChar

StartChar: p
Encoding: 112 112 53
GlifName: p
Width: 2510
VWidth: 4730
Flags: HMW
LayerCount: 2
Fore
SplineSet
788 942 m 0
 788 1565 1034 1921 1489 1921 c 0
 1935 1921 2358 1556 2358 942 c 0
 2358 328 1935 -41 1489 -41 c 0
 1034 -41 788 319 788 942 c 0
850 942 m 0
 850 352 1124 87 1366 87 c 0
 1669 87 1814 393 1814 942 c 0
 1814 1491 1675 1793 1372 1793 c 0
 1122 1793 850 1532 850 942 c 0
92 -942 m 1
 1136 -942 l 1
 1136 -1024 l 1
 92 -1024 l 1
 92 -942 l 1
378 1802 m 1
 92 1802 l 1
 92 1884 l 1
 850 1884 l 1
 850 -1024 l 1
 378 -1024 l 1
 378 1802 l 1
EndSplineSet
EndChar

StartChar: q
Encoding: 113 113 54
GlifName: q
Width: 2510
VWidth: 4730
Flags: HMW
LayerCount: 2
Fore
SplineSet
1722 942 m 0
 1722 319 1477 -41 1022 -41 c 0
 576 -41 154 328 154 942 c 0
 154 1556 576 1921 1022 1921 c 0
 1477 1921 1722 1565 1722 942 c 0
1660 942 m 0
 1660 1532 1390 1793 1140 1793 c 0
 847 1793 696 1491 696 942 c 0
 696 393 847 97 1140 97 c 0
 1410 97 1660 352 1660 942 c 0
2419 -942 m 1
 2419 -1024 l 1
 1374 -1024 l 1
 1374 -942 l 1
 2419 -942 l 1
2419 1884 m 1
 2419 1802 l 1
 2132 1802 l 1
 2132 -1024 l 1
 1660 -1024 l 1
 1660 1884 l 1
 2419 1884 l 1
EndSplineSet
EndChar

StartChar: r
Encoding: 114 114 55
GlifName: r
Width: 1837
VWidth: 4730
Flags: HMW
LayerCount: 2
Fore
SplineSet
1528 1801 m 1
 1484 1832 1423 1840 1362 1840 c 0
 973 1840 850 1314 850 913 c 1
 788 913 l 1
 788 1413 896 1925 1372 1925 c 0
 1580 1925 1790 1774 1790 1542 c 0
 1790 1378 1689 1240 1502 1240 c 0
 1336 1240 1208 1340 1208 1518 c 0
 1208 1698 1371 1801 1528 1801 c 1
92 82 m 1
 1136 82 l 1
 1136 0 l 1
 92 0 l 1
 92 82 l 1
378 1802 m 1
 92 1802 l 1
 92 1884 l 1
 850 1884 l 1
 850 0 l 1
 378 0 l 1
 378 1802 l 1
EndSplineSet
EndChar

StartChar: s
Encoding: 115 115 56
GlifName: s
Width: 1802
VWidth: 4730
Flags: HMW
LayerCount: 2
Fore
SplineSet
1449 1504 m 1
 1386 1573 1328 1643 1270 1714 c 1
 1472 1925 l 1
 1534 1925 l 1
 1534 1352 l 1
 1452 1352 l 1
 1460 1402 1457 1452 1449 1504 c 1
1513 1352 m 1
 1452 1352 l 1
 1380 1569 1164 1831 832 1831 c 0
 686 1831 461 1748 461 1540 c 0
 461 1161 1669 1342 1669 592 c 0
 1669 196 1334 -41 948 -41 c 0
 552 -41 255 213 194 563 c 1
 256 563 l 1
 369 274 617 49 908 49 c 0
 1144 49 1380 138 1380 368 c 0
 1380 826 223 570 223 1352 c 0
 223 1645 439 1921 828 1921 c 0
 1229 1921 1472 1622 1513 1352 c 1
236 -41 m 1
 174 -41 l 1
 174 563 l 1
 256 563 l 1
 253 517 251 472 256 428 c 1
 304 331 375 259 438 180 c 1
 236 -41 l 1
EndSplineSet
EndChar

StartChar: t
Encoding: 116 116 57
GlifName: t
Width: 1412
VWidth: 4730
Flags: HMW
LayerCount: 2
Fore
SplineSet
50 1884 m 1
 1260 1884 l 1
 1260 1802 l 1
 50 1802 l 1
 50 1884 l 1
1382 418 m 1
 1284 156 1065 -29 774 -29 c 0
 407 -29 350 210 350 466 c 2
 350 2294 l 1
 504 2294 709 2345 822 2417 c 1
 822 398 l 2
 822 193 866 130 977 130 c 0
 1092 130 1235 266 1309 446 c 1
 1382 418 l 1
EndSplineSet
EndChar

StartChar: u
Encoding: 117 117 58
GlifName: u
Width: 2477
VWidth: 4730
Flags: HMW
LayerCount: 2
Fore
SplineSet
850 1884 m 1
 850 623 l 2
 850 279 936 119 1136 119 c 0
 1432 119 1628 549 1628 971 c 1
 1690 971 l 1
 1690 553 1546 -41 960 -41 c 0
 522 -41 378 222 378 578 c 2
 378 1802 l 1
 92 1802 l 1
 92 1884 l 1
 850 1884 l 1
2100 82 m 1
 2386 82 l 1
 2386 0 l 1
 1628 0 l 1
 1628 1802 l 1
 1352 1802 l 1
 1352 1884 l 1
 2100 1884 l 1
 2100 82 l 1
EndSplineSet
EndChar

StartChar: v
Encoding: 118 118 59
GlifName: v
Width: 2299
VWidth: 4730
Flags: HMW
LayerCount: 2
Fore
SplineSet
2290 1802 m 1
 1495 1802 l 1
 1495 1884 l 1
 2290 1884 l 1
 2290 1802 l 1
1162 1802 m 1
 10 1802 l 1
 10 1884 l 1
 1162 1884 l 1
 1162 1802 l 1
1332 457 m 1
 1896 1884 l 1
 2007 1884 l 1
 1237 -41 l 1
 1066 -41 l 1
 276 1884 l 1
 798 1884 l 1
 1332 457 l 1
EndSplineSet
EndChar

StartChar: w
Encoding: 119 119 60
GlifName: w
Width: 3255
VWidth: 4730
Flags: HMW
LayerCount: 2
Fore
SplineSet
1152 1802 m 1
 10 1802 l 1
 10 1884 l 1
 1152 1884 l 1
 1152 1802 l 1
3246 1802 m 1
 2369 1802 l 1
 2369 1884 l 1
 3246 1884 l 1
 3246 1802 l 1
1183 490 m 1
 1740 1925 l 1
 1956 1925 l 1
 2378 559 l 1
 2820 1884 l 1
 2922 1884 l 1
 2279 -41 l 1
 2106 -41 l 1
 1622 1352 l 1
 1078 -41 l 1
 902 -41 l 1
 276 1884 l 1
 774 1884 l 1
 1183 490 l 1
EndSplineSet
EndChar

StartChar: x
Encoding: 120 120 61
GlifName: x
Width: 2340
VWidth: 4730
Flags: HMW
LayerCount: 2
Fore
SplineSet
1232 82 m 1
 2290 82 l 1
 2290 0 l 1
 1232 0 l 1
 1232 82 l 1
50 82 m 1
 856 82 l 1
 856 0 l 1
 50 0 l 1
 50 82 l 1
1182 1802 m 1
 82 1802 l 1
 82 1884 l 1
 1182 1884 l 1
 1182 1802 l 1
2234 1802 m 1
 1460 1802 l 1
 1460 1884 l 1
 2234 1884 l 1
 2234 1802 l 1
2105 0 m 1
 1542 0 l 1
 308 1884 l 1
 860 1884 l 1
 2105 0 l 1
370 0 m 1
 256 0 l 1
 1873 1884 l 1
 1988 1884 l 1
 370 0 l 1
EndSplineSet
EndChar

StartChar: y
Encoding: 121 121 62
GlifName: y
Width: 2367
VWidth: 4730
Flags: HMW
LayerCount: 2
Fore
SplineSet
1202 1802 m 1
 0 1802 l 1
 0 1884 l 1
 1202 1884 l 1
 1202 1802 l 1
2398 1802 m 1
 1630 1802 l 1
 1630 1884 l 1
 2398 1884 l 1
 2398 1802 l 1
1484 452 m 1
 1208 -80 l 1
 242 1884 l 1
 784 1884 l 1
 1484 452 l 1
876 -711 m 1
 2066 1884 l 1
 2178 1884 l 1
 947 -790 l 2
 866 -964 780 -1068 614 -1068 c 0
 481 -1068 336 -981 336 -805 c 0
 336 -649 450 -528 612 -528 c 0
 749 -528 851 -621 876 -711 c 1
EndSplineSet
EndChar

StartChar: z
Encoding: 122 122 63
GlifName: z
Width: 1904
VWidth: 4730
Flags: HMW
LayerCount: 2
Fore
SplineSet
824 1802 m 2
 398 1802 299 1594 268 1180 c 1
 186 1180 l 1
 186 1884 l 1
 1746 1884 l 1
 1746 1802 l 1
 616 82 l 1
 1081 82 l 2
 1601 82 1699 246 1730 754 c 1
 1812 754 l 1
 1812 0 l 1
 72 0 l 1
 72 82 l 1
 1198 1802 l 1
 824 1802 l 2
EndSplineSet
EndChar

StartChar: comma
Encoding: 44 44 65
GlifName: comma
Width: 1003
Flags: HMW
LayerCount: 2
Fore
SplineSet
164 262 m 0
 164 428 313 565 500 565 c 0
 691 565 848 408 848 78 c 0
 848 -270 586 -639 156 -639 c 1
 156 -557 l 1
 472 -557 733 -332 762 110 c 1
 672 -11 543 -41 442 -41 c 0
 276 -41 164 96 164 262 c 0
EndSplineSet
EndChar

StartChar: exclam
Encoding: 33 33 67
GlifName: exclam
Width: 1433
Flags: HMW
LayerCount: 2
Fore
SplineSet
1016 2658 m 0
 971 1998 754 1517 754 954 c 1
 672 954 l 1
 672 1517 455 1998 410 2658 c 0
 409 2687 410 2711 410 2736 c 0
 410 2944 488 3105 712 3105 c 0
 936 3105 1020 2944 1020 2736 c 0
 1020 2711 1017 2687 1016 2658 c 0
EndSplineSet
Refer: 1 46 N 1 0 0 1 246 0 2
EndChar

StartChar: quotesingle
Encoding: 39 39 70
GlifName: quotesingle
Width: 941
Flags: HMW
LayerCount: 2
Fore
SplineSet
733 2748 m 24
 688 2441 512 2379 512 1928 c 1
 430 1928 l 1
 430 2379 254 2441 209 2748 c 24
 205 2777 205 2797 205 2822 c 0
 205 3002 321 3113 471 3113 c 0
 621 3113 737 3002 737 2822 c 0
 737 2797 737 2777 733 2748 c 24
EndSplineSet
EndChar

StartChar: question
Encoding: 63 63 75
GlifName: question
Width: 2323
Flags: HMW
LayerCount: 2
Fore
SplineSet
982 1450 m 1
 1389 1577 1583 1913 1583 2294 c 0
 1583 2679 1495 3016 1049 3016 c 0
 725 3016 456 2772 404 2616 c 1
 420 2620 460 2642 526 2642 c 0
 676 2642 816 2544 816 2376 c 0
 816 2186 673 2096 530 2096 c 0
 366 2096 246 2206 246 2400 c 0
 246 2746 631 3113 1131 3113 c 0
 1729 3113 2120 2786 2120 2294 c 0
 2120 1823 1693 1433 1064 1396 c 1
 1064 928 l 1
 982 928 l 1
 982 1450 l 1
EndSplineSet
Refer: 1 46 N 1 0 0 1 590 0 2
EndChar

StartChar: parenleft
Encoding: 40 40 76
GlifName: parenleft
Width: 1502
Flags: HMW
LayerCount: 2
Fore
SplineSet
1462 -627 m 1
 1426 -696 l 1
 758 -409 266 377 266 1331 c 0
 266 2285 758 2990 1426 3277 c 1
 1462 3207 l 1
 1005 2910 778 2117 778 1331 c 0
 778 545 1005 -330 1462 -627 c 1
EndSplineSet
EndChar

StartChar: at
Encoding: 64 64 79
GlifName: at
Width: 4136
VWidth: 4730
Flags: HMW
LayerCount: 2
Fore
SplineSet
2503 1458 m 0
 2503 794 2146 287 1706 287 c 0
 1362 287 1082 516 1082 942 c 0
 1082 1556 1542 2167 2060 2167 c 0
 2402 2167 2503 1794 2503 1458 c 0
2438 1417 m 0
 2438 1589 2395 2019 2170 2019 c 0
 1909 2019 1618 1491 1618 983 c 0
 1618 709 1680 438 1901 438 c 0
 2120 438 2438 893 2438 1417 c 0
2346 860 m 2
 2640 2130 l 1
 3131 2130 l 1
 2836 860 l 2
 2816 770 2669 390 2943 390 c 0
 3416 390 3830 1011 3830 1642 c 0
 3830 2367 3391 3154 2392 3154 c 0
 1249 3154 307 2101 307 864 c 0
 307 -353 1003 -795 1716 -795 c 0
 2388 -795 2785 -602 3154 -201 c 1
 3215 -262 l 1
 2871 -663 2384 -877 1716 -877 c 0
 966 -877 225 -418 225 864 c 0
 225 2146 1196 3236 2396 3236 c 0
 3432 3236 3912 2392 3912 1642 c 0
 3912 976 3530 279 2799 279 c 0
 2373 279 2289 606 2346 860 c 2
EndSplineSet
EndChar

StartChar: dollar
Encoding: 36 36 80
GlifName: dollar
Width: 2354
Flags: HMW
LayerCount: 2
Fore
SplineSet
1260 3400 m 1
 1362 3400 l 1
 1362 -328 l 1
 1260 -328 l 1
 1260 3400 l 1
912 3400 m 1
 1014 3400 l 1
 1014 -328 l 1
 912 -328 l 1
 912 3400 l 1
1909 2666 m 1
 1843 2827 1581 3019 1227 3019 c 0
 834 3019 594 2823 594 2519 c 0
 594 1792 2191 2017 2191 880 c 0
 2191 307 1806 -61 1198 -61 c 0
 487 -61 118 328 118 614 c 0
 118 822 240 981 440 981 c 0
 584 981 734 870 734 670 c 0
 734 486 568 382 418 382 c 0
 352 382 301 400 276 412 c 1
 414 256 629 29 1157 29 c 0
 1591 29 1834 260 1834 635 c 0
 1834 1444 236 1168 236 2294 c 0
 236 2796 700 3113 1196 3113 c 0
 1648 3113 2089 2830 2089 2478 c 0
 2089 2270 1972 2122 1772 2122 c 0
 1628 2122 1479 2220 1479 2418 c 0
 1479 2599 1624 2710 1774 2710 c 0
 1819 2710 1877 2688 1909 2666 c 1
EndSplineSet
EndChar

StartChar: numbersign
Encoding: 35 35 81
GlifName: numbersign
Width: 2580
Flags: HMW
LayerCount: 2
Fore
SplineSet
123 1085 m 1
 2335 1085 l 1
 2335 1004 l 1
 123 1004 l 1
 123 1085 l 1
246 2130 m 1
 2458 2130 l 1
 2458 2048 l 1
 246 2048 l 1
 246 2130 l 1
1843 3088 m 1
 1925 3092 l 1
 1516 -20 l 1
 1434 -25 l 1
 1843 3088 l 1
1024 3092 m 1
 1106 3092 l 1
 696 -20 l 1
 614 -20 l 1
 1024 3092 l 1
EndSplineSet
EndChar

StartChar: slash
Encoding: 47 47 82
GlifName: slash
Width: 2129
Flags: HMW
LayerCount: 2
Fore
SplineSet
1884 3195 m 1
 1966 3195 l 1
 246 -614 l 1
 164 -614 l 1
 1884 3195 l 1
EndSplineSet
EndChar

StartChar: percent
Encoding: 37 37 83
GlifName: percent
Width: 4136
Flags: HMW
LayerCount: 2
Fore
SplineSet
2816 860 m 0
 2816 391 2881 41 3133 41 c 0
 3385 41 3451 391 3451 860 c 0
 3451 1329 3385 1679 3133 1679 c 0
 2881 1679 2816 1329 2816 860 c 0
2273 860 m 0
 2273 1446 2670 1761 3133 1761 c 0
 3596 1761 3994 1446 3994 860 c 0
 3994 274 3514 -41 3133 -41 c 0
 2670 -41 2273 274 2273 860 c 0
3052 3072 m 1
 3154 3072 l 1
 1086 0 l 1
 984 0 l 1
 3052 3072 l 1
686 2212 m 0
 686 1743 752 1393 1004 1393 c 0
 1256 1393 1320 1743 1320 2212 c 0
 1320 2681 1256 3031 1004 3031 c 0
 752 3031 686 2681 686 2212 c 0
143 2212 m 0
 143 2798 541 3113 1004 3113 c 0
 1467 3113 1864 2798 1864 2212 c 0
 1864 1626 1385 1311 1004 1311 c 0
 541 1311 143 1626 143 2212 c 0
EndSplineSet
EndChar

StartChar: hyphen
Encoding: 45 45 85
GlifName: hyphen
Width: 1474
Flags: HMW
LayerCount: 2
Fore
SplineSet
246 1167 m 1
 1229 1167 l 1
 1229 1085 l 1
 246 1085 l 1
 246 1167 l 1
EndSplineSet
EndChar

StartChar: plus
Encoding: 43 43 87
GlifName: plus
Width: 2170
Flags: HMW
LayerCount: 2
Fore
SplineSet
1044 451 m 1
 1044 2130 l 1
 1126 2130 l 1
 1126 451 l 1
 1044 451 l 1
246 1335 m 1
 1925 1335 l 1
 1925 1253 l 1
 246 1253 l 1
 246 1335 l 1
EndSplineSet
EndChar

StartChar: less
Encoding: 60 60 89
GlifName: less
Width: 2293
Flags: HMW
LayerCount: 2
Fore
SplineSet
246 1556 m 1
 246 1638 l 1
 2048 2458 l 1
 2048 2376 l 1
 246 1556 l 1
246 1536 m 1
 246 1618 l 1
 2048 799 l 1
 2048 717 l 1
 246 1536 l 1
EndSplineSet
EndChar

StartChar: backslash
Encoding: 92 92 91
GlifName: backslash
Width: 2129
Flags: HMW
LayerCount: 2
Fore
SplineSet
266 3195 m 1
 1966 -614 l 1
 1864 -614 l 1
 164 3195 l 1
 266 3195 l 1
EndSplineSet
EndChar

StartChar: bracketleft
Encoding: 91 91 92
GlifName: bracketleft
Width: 1392
Flags: HMW
LayerCount: 2
Fore
SplineSet
1270 -614 m 1
 225 -614 l 1
 225 -532 l 1
 1270 -532 l 1
 1270 -614 l 1
1270 3113 m 1
 225 3113 l 1
 225 3195 l 1
 1270 3195 l 1
 1270 3113 l 1
717 3195 m 1
 717 -614 l 1
 225 -614 l 1
 225 3195 l 1
 717 3195 l 1
EndSplineSet
EndChar

StartChar: braceleft
Encoding: 123 123 93
GlifName: braceleft
Width: 1236
VWidth: 4730
Flags: HMW
LayerCount: 2
Fore
SplineSet
1114 3195 m 1
 1114 3113 l 1
 860 3113 729 2908 729 2650 c 0
 729 2360 868 2186 868 1796 c 0
 868 1456 651 1352 225 1270 c 1
 225 1331 l 1
 348 1372 471 1454 471 1622 c 0
 471 1880 225 2066 225 2606 c 0
 225 2992 428 3195 1114 3195 c 1
1114 -614 m 1
 428 -614 225 -406 225 -20 c 0
 225 520 471 705 471 963 c 0
 471 1131 348 1208 225 1249 c 1
 225 1311 l 1
 651 1229 868 1128 868 788 c 0
 868 398 729 224 729 -66 c 0
 729 -324 860 -532 1114 -532 c 1
 1114 -614 l 1
EndSplineSet
EndChar

StartChar: bar
Encoding: 124 124 96
GlifName: bar
Width: 942
VWidth: 4730
Flags: HMW
LayerCount: 2
Fore
SplineSet
430 3195 m 1
 512 3195 l 1
 512 -1024 l 1
 430 -1024 l 1
 430 3195 l 1
EndSplineSet
EndChar

StartChar: cent
Encoding: 162 162 98
GlifName: cent
Width: 2077
VWidth: 4730
Flags: HMW
LayerCount: 2
Fore
SplineSet
1192 2273 m 1
 1192 -348 l 1
 1110 -348 l 1
 1110 2273 l 1
 1192 2273 l 1
EndSplineSet
Refer: 40 99 N 1 0 0 1 0 0 2
EndChar

StartChar: sterling
Encoding: 163 163 99
GlifName: sterling
Width: 2623
VWidth: 4730
Flags: HMW
LayerCount: 2
Fore
SplineSet
2528 766 m 1
 2528 70 2216 -123 1800 -123 c 0
 1239 -123 1024 123 766 123 c 0
 598 123 418 41 377 -82 c 1
 332 -82 l 1
 404 221 641 520 1012 520 c 0
 1402 520 1566 381 1856 381 c 0
 2114 381 2446 430 2446 766 c 1
 2528 766 l 1
1905 1659 m 1
 1905 1577 l 1
 61 1577 l 1
 61 1659 l 1
 1905 1659 l 1
442 2253 m 0
 442 2826 883 3113 1573 3113 c 0
 2237 3113 2548 2752 2548 2416 c 0
 2548 2217 2412 2095 2254 2095 c 0
 2111 2095 1950 2191 1950 2386 c 0
 1950 2560 2094 2673 2244 2673 c 0
 2302 2673 2350 2652 2366 2648 c 1
 2335 2759 2112 3020 1676 3020 c 0
 1178 3020 1020 2669 1020 2345 c 0
 1020 1939 1249 1710 1249 1382 c 0
 1249 634 324 624 377 -82 c 1
 295 -82 l 1
 217 487 774 807 774 1069 c 0
 774 1536 442 1782 442 2253 c 0
EndSplineSet
EndChar

StartChar: section
Encoding: 167 167 101
GlifName: section
Width: 1890
VWidth: 4730
Flags: HMW
LayerCount: 2
Fore
SplineSet
492 2653 m 0
 492 2189 1750 2209 1750 1582 c 0
 1750 1308 1526 1187 1316 1051 c 1
 1250 1070 l 1
 1328 1150 1418 1225 1418 1359 c 0
 1418 1855 264 1725 264 2470 c 0
 264 2896 628 3113 976 3113 c 0
 1326 3113 1709 2958 1709 2524 c 0
 1709 2346 1596 2209 1432 2209 c 0
 1288 2209 1181 2310 1181 2468 c 0
 1181 2610 1304 2722 1444 2722 c 0
 1498 2722 1555 2695 1571 2691 c 1
 1503 2885 1281 3029 976 3029 c 0
 729 3029 492 2878 492 2653 c 0
1732 664 m 0
 1732 238 1400 -41 908 -41 c 0
 548 -41 123 104 123 558 c 0
 123 736 236 872 400 872 c 0
 544 872 652 770 652 612 c 0
 652 470 530 364 390 364 c 0
 336 364 280 390 264 394 c 1
 348 160 624 43 908 43 c 0
 1310 43 1458 250 1458 434 c 0
 1458 898 176 848 176 1444 c 0
 176 1750 418 1932 568 2038 c 1
 645 2038 l 1
 629 1989 539 1882 539 1718 c 0
 539 1222 1732 1409 1732 664 c 0
EndSplineSet
EndChar

StartChar: asciitilde
Encoding: 126 126 104
GlifName: asciitilde
Width: 2818
VWidth: 4730
Flags: HMW
LayerCount: 2
Fore
SplineSet
862 1759 m 0
 645 1759 492 1669 492 1405 c 1
 410 1405 l 1
 410 1876 676 2120 1020 2120 c 0
 1471 2120 1523 1735 1916 1735 c 0
 2174 1735 2327 1825 2327 2089 c 1
 2408 2089 l 1
 2408 1618 2142 1374 1798 1374 c 0
 1278 1374 1284 1759 862 1759 c 0
EndSplineSet
EndChar

StartChar: copyright
Encoding: 169 169 105
GlifName: copyright
Width: 3563
Flags: HMW
LayerCount: 2
Fore
SplineSet
205 1536 m 0
 205 2408 910 3113 1782 3113 c 0
 2654 3113 3359 2408 3359 1536 c 0
 3359 664 2654 -41 1782 -41 c 0
 910 -41 205 664 205 1536 c 0
287 1536 m 0
 287 713 959 41 1782 41 c 0
 2605 41 3277 713 3277 1536 c 0
 3277 2359 2605 3031 1782 3031 c 0
 959 3031 287 2359 287 1536 c 0
EndSplineSet
Refer: 14 67 N 0.6 0 0 0.6 848 614 2
EndChar

StartChar: registered
Encoding: 174 174 106
GlifName: registered
Width: 3563
Flags: HMW
LayerCount: 2
Fore
SplineSet
205 1536 m 0
 205 2408 910 3113 1782 3113 c 0
 2654 3113 3359 2408 3359 1536 c 0
 3359 664 2654 -41 1782 -41 c 0
 910 -41 205 664 205 1536 c 0
287 1536 m 0
 287 713 959 41 1782 41 c 0
 2605 41 3277 713 3277 1536 c 0
 3277 2359 2605 3031 1782 3031 c 0
 959 3031 287 2359 287 1536 c 0
EndSplineSet
Refer: 29 82 S 0.6 0 0 0.6 945 606 2
EndChar

StartChar: logicalnot
Encoding: 172 172 107
GlifName: logicalnot
Width: 1990
Flags: HMW
LayerCount: 2
Fore
SplineSet
1663 2437 m 1
 246 2437 l 1
 246 2519 l 1
 1745 2519 l 1
 1745 1692 l 1
 1663 1692 l 1
 1663 2437 l 1
EndSplineSet
EndChar

StartChar: guillemotleft
Encoding: 171 171 108
GlifName: guillemotleft
Width: 2907
Flags: HMW
LayerCount: 2
Fore
SplineSet
1888 1589 m 1
 2704 635 l 1
 2662 594 l 1
 1249 1536 l 1
 1249 1638 l 1
 2662 2580 l 1
 2704 2540 l 1
 1888 1589 l 1
720 1589 m 1
 1556 635 l 1
 1516 594 l 1
 102 1536 l 1
 102 1638 l 1
 1516 2580 l 1
 1556 2540 l 1
 720 1589 l 1
EndSplineSet
EndChar

StartChar: mu
Encoding: 181 181 111
GlifName: mu
Width: 2477
VWidth: 4730
Flags: HMW
LayerCount: 2
Fore
SplineSet
1090 -504 m 0
 1225 -504 1332 -622 1332 -778 c 0
 1332 -938 1245 -1065 946 -1065 c 0
 659 -1065 414 -865 414 -496 c 2
 414 1315 l 1
 496 1315 l 1
 496 -496 l 2
 496 -832 688 -974 958 -999 c 1
 958 -999 l 1
 847 -905 848 -795 848 -721 c 0
 848 -586 955 -504 1090 -504 c 0
EndSplineSet
Refer: 58 117 N 1 0 0 1 0 0 2
EndChar

StartChar: asciicircum
Encoding: 94 94 113
GlifName: asciicircum
Width: 2232
Flags: HMW
LayerCount: 2
Fore
SplineSet
1114 2961 m 1
 451 2540 l 1
 410 2580 l 1
 983 3154 l 1
 1249 3154 l 1
 1823 2580 l 1
 1782 2540 l 1
 1114 2961 l 1
EndSplineSet
EndChar

StartChar: degree
Encoding: 176 176 115
GlifName: degree
Width: 1310
Flags: HMW
LayerCount: 2
Fore
SplineSet
164 2785 m 0
 164 3055 385 3277 655 3277 c 0
 925 3277 1147 3055 1147 2785 c 0
 1147 2515 925 2294 655 2294 c 0
 385 2294 164 2515 164 2785 c 0
389 2785 m 0
 389 2633 503 2519 655 2519 c 0
 807 2519 922 2633 922 2785 c 0
 922 2937 807 3052 655 3052 c 0
 503 3052 389 2937 389 2785 c 0
EndSplineSet
EndChar

StartChar: onequarter
Encoding: 188 188 119
GlifName: onequarter
Width: 2686
Flags: HMW
LayerCount: 2
Fore
SplineSet
2073 2662 m 1
 2154 2662 l 1
 246 -410 l 1
 164 -410 l 1
 2073 2662 l 1
EndSplineSet
Refer: 6 52 N 0.6 0 0 0.6 1106 -422 2
Refer: 3 49 N 0.6 0 0 0.6 -33 1458 2
EndChar

StartChar: onehalf
Encoding: 189 189 120
GlifName: onehalf
Width: 2805
Flags: HMW
LayerCount: 2
Fore
SplineSet
2073 2662 m 1
 2154 2662 l 1
 246 -410 l 1
 164 -410 l 1
 2073 2662 l 1
EndSplineSet
Refer: 4 50 N 0.6 0 0 0.6 1397 -414 2
Refer: 3 49 N 0.6 0 0 0.6 -33 1458 2
EndChar

StartChar: threequarters
Encoding: 190 190 121
GlifName: threequarters
Width: 2932
Flags: HMW
LayerCount: 2
Fore
SplineSet
2318 2662 m 1
 2400 2662 l 1
 492 -410 l 1
 410 -410 l 1
 2318 2662 l 1
EndSplineSet
Refer: 5 51 N 0.6 0 0 0.6 20 1450 2
Refer: 6 52 N 0.6 0 0 0.6 1352 -422 2
EndChar

StartChar: grave
Encoding: 96 96 123
GlifName: grave
Width: 1647
Flags: HMW
LayerCount: 2
Fore
SplineSet
430 2908 m 2
 321 2902 225 2983 225 3092 c 0
 225 3201 333 3313 471 3269 c 2
 1422 3000 l 1
 1403 2918 l 1
 430 2908 l 2
EndSplineSet
EndChar

StartChar: acute
Encoding: 180 180 124
GlifName: acute
Width: 1647
Flags: HMW
LayerCount: 2
Fore
SplineSet
1218 2908 m 2
 246 2918 l 1
 227 3000 l 1
 1177 3269 l 2
 1315 3313 1424 3201 1424 3092 c 0
 1424 2983 1327 2902 1218 2908 c 2
EndSplineSet
EndChar

StartChar: cedilla
Encoding: 184 184 128
GlifName: cedilla
Width: 2252
Flags: HMW
LayerCount: 2
Fore
SplineSet
1307 -573 m 0
 1307 -356 1124 -324 889 -324 c 1
 1257 168 l 1
 1372 168 l 1
 1126 -160 l 1
 1452 -172 1679 -263 1679 -492 c 0
 1679 -697 1483 -901 926 -901 c 1
 926 -819 l 1
 1168 -819 1307 -712 1307 -573 c 0
EndSplineSet
EndChar

StartChar: divide
Encoding: 247 247 131
GlifName: divide
Width: 2395
Flags: HMW
LayerCount: 2
Fore
SplineSet
194 1659 m 1
 2202 1659 l 1
 2202 1577 l 1
 194 1577 l 1
 194 1659 l 1
890 830 m 0
 890 998 1030 1137 1198 1137 c 0
 1366 1137 1505 998 1505 830 c 0
 1505 662 1366 522 1198 522 c 0
 1030 522 890 662 890 830 c 0
890 2345 m 0
 890 2513 1030 2652 1198 2652 c 0
 1366 2652 1505 2513 1505 2345 c 0
 1505 2177 1366 2038 1198 2038 c 0
 1030 2038 890 2177 890 2345 c 0
EndSplineSet
EndChar

StartChar: ring
Encoding: 730 730 271
GlifName: ring
Width: 1310
VWidth: 0
Flags: HMW
LayerCount: 2
Fore
SplineSet
266 2785 m 0
 266 2994 425 3154 655 3154 c 0
 885 3154 1044 2994 1044 2785 c 0
 1044 2576 885 2417 655 2417 c 0
 425 2417 266 2576 266 2785 c 0
461 2785 m 0
 461 2603 523 2499 655 2499 c 0
 787 2499 850 2603 850 2785 c 0
 850 2967 787 3072 655 3072 c 0
 523 3072 461 2967 461 2785 c 0
EndSplineSet
EndChar

StartChar: tilde
Encoding: 732 732 272
GlifName: tilde
Width: 1835
VWidth: 0
Flags: HMW
LayerCount: 2
Fore
SplineSet
524 2709 m 0
 400 2709 287 2630 287 2448 c 1
 205 2448 l 1
 205 2796 378 3009 610 3009 c 0
 918 3009 1091 2685 1310 2685 c 0
 1434 2685 1548 2766 1548 2948 c 1
 1630 2948 l 1
 1630 2559 1539 2386 1266 2386 c 0
 972 2386 772 2709 524 2709 c 0
EndSplineSet
EndChar

StartChar: AE
Encoding: 198 198 274
GlifName: A_E_
Width: 4188
Flags: HMW
LayerCount: 2
Fore
SplineSet
2150 3072 m 1
 2245 3072 l 1
 463 0 l 1
 348 0 l 1
 2150 3072 l 1
61 82 m 1
 963 82 l 1
 963 0 l 1
 61 0 l 1
 61 82 l 1
1004 1044 m 1
 2191 1044 l 1
 2191 963 l 1
 1004 963 l 1
 1004 1044 l 1
2150 3072 m 1
 2663 3072 l 1
 2663 0 l 1
 2150 0 l 1
 2150 3072 l 1
2150 3072 m 1
 4024 3072 l 1
 4024 2232 l 1
 3942 2232 l 1
 3911 2670 3724 2990 3256 2990 c 2
 2150 2990 l 1
 2150 3072 l 1
4066 0 m 1
 1782 0 l 1
 1782 82 l 1
 3216 82 l 2
 3766 82 3953 402 3984 922 c 1
 4066 922 l 1
 4066 0 l 1
3277 1108 m 1
 3246 1382 3089 1548 2856 1548 c 2
 2612 1548 l 1
 2612 1630 l 1
 2856 1630 l 2
 3089 1630 3246 1776 3277 2050 c 1
 3359 2050 l 1
 3359 1108 l 1
 3277 1108 l 1
EndSplineSet
EndChar

StartChar: ae
Encoding: 230 230 277
GlifName: ae
Width: 3268
VWidth: 4730
Flags: HMW
LayerCount: 2
Fore
SplineSet
287 1488 m 0
 287 1747 642 1917 1036 1917 c 0
 1568 1917 1694 1601 1694 1249 c 1
 1653 741 l 1
 1653 233 1326 -41 860 -41 c 0
 475 -41 143 99 143 463 c 0
 143 807 458 1069 1040 1069 c 2
 1528 1069 l 1
 1528 987 l 1
 1112 987 l 2
 832 987 664 783 664 509 c 0
 664 235 770 46 964 46 c 0
 1166 46 1314 296 1314 690 c 2
 1314 1249 l 2
 1314 1523 1269 1821 941 1821 c 0
 781 1821 668 1776 612 1732 c 1
 706 1717 844 1658 844 1496 c 0
 844 1322 684 1233 551 1233 c 0
 397 1233 287 1330 287 1488 c 0
2642 1110 m 1
 2638 1410 2602 1843 2288 1843 c 0
 1944 1843 1854 1429 1854 962 c 0
 1854 495 1954 52 2380 52 c 0
 2730 52 2982 287 3084 586 c 1
 3166 586 l 1
 3060 230 2776 -41 2300 -41 c 0
 1774 -41 1424 318 1424 942 c 0
 1424 1566 1762 1925 2288 1925 c 0
 2898 1925 3162 1474 3162 1028 c 1
 1646 1028 l 1
 1646 1110 l 1
 2642 1110 l 1
EndSplineSet
EndChar

StartChar: perthousand
Encoding: 8240 8240 285
GlifName: perthousand
Width: 6102
Flags: HMW
LayerCount: 2
Fore
SplineSet
4782 860 m 0
 4782 391 4848 41 5100 41 c 0
 5352 41 5416 391 5416 860 c 0
 5416 1329 5352 1679 5100 1679 c 0
 4848 1679 4782 1329 4782 860 c 0
4239 860 m 0
 4239 1446 4637 1761 5100 1761 c 0
 5563 1761 5960 1446 5960 860 c 0
 5960 274 5481 -41 5100 -41 c 0
 4637 -41 4239 274 4239 860 c 0
2816 860 m 0
 2816 391 2881 41 3133 41 c 0
 3385 41 3451 391 3451 860 c 0
 3451 1329 3385 1679 3133 1679 c 0
 2881 1679 2816 1329 2816 860 c 0
2273 860 m 0
 2273 1446 2670 1761 3133 1761 c 0
 3596 1761 3994 1446 3994 860 c 0
 3994 274 3514 -41 3133 -41 c 0
 2670 -41 2273 274 2273 860 c 0
3052 3072 m 1
 3154 3072 l 1
 1086 0 l 1
 984 0 l 1
 3052 3072 l 1
686 2212 m 0
 686 1743 752 1393 1004 1393 c 0
 1256 1393 1320 1743 1320 2212 c 0
 1320 2681 1256 3031 1004 3031 c 0
 752 3031 686 2681 686 2212 c 0
143 2212 m 0
 143 2798 541 3113 1004 3113 c 0
 1467 3113 1864 2798 1864 2212 c 0
 1864 1626 1385 1311 1004 1311 c 0
 541 1311 143 1626 143 2212 c 0
EndSplineSet
EndChar

StartChar: uni2031
Encoding: 8241 8241 286
GlifName: uni2031
Width: 8099
Flags: HMW
LayerCount: 2
Fore
SplineSet
6779 860 m 0
 6779 391 6844 41 7096 41 c 0
 7348 41 7414 391 7414 860 c 0
 7414 1329 7348 1679 7096 1679 c 0
 6844 1679 6779 1329 6779 860 c 0
6236 860 m 0
 6236 1446 6633 1761 7096 1761 c 0
 7559 1761 7956 1446 7956 860 c 0
 7956 274 7477 -41 7096 -41 c 0
 6633 -41 6236 274 6236 860 c 0
4782 860 m 0
 4782 391 4848 41 5100 41 c 0
 5352 41 5416 391 5416 860 c 0
 5416 1329 5352 1679 5100 1679 c 0
 4848 1679 4782 1329 4782 860 c 0
4239 860 m 0
 4239 1446 4637 1761 5100 1761 c 0
 5563 1761 5960 1446 5960 860 c 0
 5960 274 5481 -41 5100 -41 c 0
 4637 -41 4239 274 4239 860 c 0
2816 860 m 0
 2816 391 2881 41 3133 41 c 0
 3385 41 3451 391 3451 860 c 0
 3451 1329 3385 1679 3133 1679 c 0
 2881 1679 2816 1329 2816 860 c 0
2273 860 m 0
 2273 1446 2670 1761 3133 1761 c 0
 3596 1761 3994 1446 3994 860 c 0
 3994 274 3514 -41 3133 -41 c 0
 2670 -41 2273 274 2273 860 c 0
3052 3072 m 1
 3154 3072 l 1
 1086 0 l 1
 984 0 l 1
 3052 3072 l 1
686 2212 m 0
 686 1743 752 1393 1004 1393 c 0
 1256 1393 1320 1743 1320 2212 c 0
 1320 2681 1256 3031 1004 3031 c 0
 752 3031 686 2681 686 2212 c 0
143 2212 m 0
 143 2798 541 3113 1004 3113 c 0
 1467 3113 1864 2798 1864 2212 c 0
 1864 1626 1385 1311 1004 1311 c 0
 541 1311 143 1626 143 2212 c 0
EndSplineSet
EndChar

StartChar: uniFB00
Encoding: 64256 64256 290
GlifName: uniF_B_00
Width: 2723
VWidth: 4730
Flags: HMW
LayerCount: 2
Fore
SplineSet
56 82 m 1
 2601 82 l 1
 2601 0 l 1
 56 0 l 1
 56 82 l 1
56 1884 m 1
 2683 1884 l 1
 2683 1802 l 1
 56 1802 l 1
 56 1884 l 1
1768 2670 m 1
 1755 2717 1604 2823 1406 2823 c 0
 1108 2823 886 2527 886 2007 c 2
 886 0 l 1
 425 0 l 1
 425 1892 l 2
 425 2450 823 2908 1396 2908 c 0
 1738 2908 1972 2686 1972 2442 c 0
 1972 2254 1850 2146 1696 2146 c 0
 1563 2146 1416 2224 1416 2408 c 0
 1416 2592 1545 2682 1705 2682 c 0
 1739 2682 1762 2670 1768 2670 c 1
2890 2906 m 1
 2846 2953 2756 3030 2558 3030 c 0
 2230 3030 2110 2732 2110 2212 c 2
 2110 0 l 1
 1648 0 l 1
 1648 2097 l 2
 1648 2655 1985 3113 2548 3113 c 0
 2890 3113 3082 2890 3082 2676 c 0
 3082 2488 2962 2382 2808 2382 c 0
 2675 2382 2527 2460 2527 2644 c 0
 2527 2828 2656 2917 2816 2917 c 0
 2850 2917 2884 2906 2890 2906 c 1
EndSplineSet
Ligature2: "'liga' Standard Ligatures lookup 0-1" f f
LCarets2: 1 0
EndChar

StartChar: uniFB01
Encoding: 64257 64257 291
GlifName: uniF_B_01
Width: 2421
VWidth: 4730
Flags: HMW
LayerCount: 2
Fore
SplineSet
425 2097 m 2
 425 2665 792 3113 1457 3113 c 0
 1881 3113 2084 2890 2084 2646 c 0
 2084 2458 1963 2352 1809 2352 c 0
 1676 2352 1529 2430 1529 2614 c 0
 1529 2798 1658 2884 1818 2884 c 0
 1852 2884 1878 2874 1884 2874 c 1
 1868 2921 1737 3030 1457 3030 c 0
 1037 3030 886 2732 886 2212 c 2
 886 0 l 1
 425 0 l 1
 425 2097 l 2
56 82 m 1
 2355 82 l 1
 2355 0 l 1
 56 0 l 1
 56 82 l 1
1597 1802 m 1
 56 1802 l 1
 56 1884 l 1
 2068 1884 l 1
 2068 0 l 1
 1597 0 l 1
 1597 1802 l 1
EndSplineSet
Ligature2: "'liga' Standard Ligatures lookup 0-1" f i
LCarets2: 1 0
EndChar

StartChar: uniFB02
Encoding: 64258 64258 292
GlifName: uniF_B_02
Width: 2534
VWidth: 4730
Flags: HMW
LayerCount: 2
Fore
SplineSet
56 82 m 1
 2504 82 l 1
 2504 0 l 1
 56 0 l 1
 56 82 l 1
56 1884 m 1
 1444 1884 l 1
 1444 1802 l 1
 56 1802 l 1
 56 1884 l 1
1725 2990 m 1
 2196 3154 l 1
 2196 0 l 1
 1725 0 l 1
 1725 2990 l 1
1699 2874 m 1
 1684 2921 1563 3031 1365 3031 c 0
 1037 3031 886 2732 886 2212 c 2
 886 0 l 1
 425 0 l 1
 425 2097 l 2
 425 2655 792 3113 1355 3113 c 0
 1697 3113 1890 2890 1890 2646 c 0
 1890 2458 1769 2352 1615 2352 c 0
 1482 2352 1334 2430 1334 2614 c 0
 1334 2798 1463 2886 1623 2886 c 0
 1657 2886 1693 2874 1699 2874 c 1
EndSplineSet
Ligature2: "'liga' Standard Ligatures lookup 0-1" f l
LCarets2: 1 0
EndChar

StartChar: uniFB03
Encoding: 64259 64259 293
GlifName: uniF_B_03
Width: 3624
VWidth: 4730
Flags: HMW
LayerCount: 2
Fore
SplineSet
1628 2097 m 2
 1628 2665 1995 3113 2660 3113 c 0
 3084 3113 3287 2890 3287 2646 c 0
 3287 2458 3166 2352 3012 2352 c 0
 2879 2352 2732 2430 2732 2614 c 0
 2732 2798 2861 2884 3021 2884 c 0
 3055 2884 3080 2874 3086 2874 c 1
 3070 2921 2940 3030 2660 3030 c 0
 2240 3030 2089 2732 2089 2212 c 2
 2089 0 l 1
 1628 0 l 1
 1628 2097 l 2
56 82 m 1
 3558 82 l 1
 3558 0 l 1
 56 0 l 1
 56 82 l 1
425 1892 m 2
 425 2448 823 2908 1396 2908 c 0
 1738 2908 1972 2686 1972 2442 c 0
 1972 2254 1850 2146 1696 2146 c 0
 1563 2146 1416 2224 1416 2408 c 0
 1416 2592 1545 2682 1705 2682 c 0
 1739 2682 1762 2670 1768 2670 c 1
 1755 2717 1604 2823 1406 2823 c 0
 1108 2823 886 2527 886 2007 c 2
 886 0 l 1
 425 0 l 1
 425 1892 l 2
2801 1802 m 1
 56 1802 l 1
 56 1884 l 1
 3271 1884 l 1
 3271 0 l 1
 2801 0 l 1
 2801 1802 l 1
EndSplineSet
Ligature2: "'liga' Standard Ligatures lookup 0-1" f f i
LCarets2: 2 0 0
EndChar

StartChar: uniFB04
Encoding: 64260 64260 294
GlifName: uniF_B_04
Width: 3788
VWidth: 4730
Flags: HMW
LayerCount: 2
Fore
SplineSet
56 82 m 1
 3728 82 l 1
 3728 0 l 1
 56 0 l 1
 56 82 l 1
56 1884 m 1
 2668 1884 l 1
 2668 1802 l 1
 56 1802 l 1
 56 1884 l 1
2949 2990 m 1
 3420 3154 l 1
 3420 0 l 1
 2949 0 l 1
 2949 2990 l 1
1768 2670 m 1
 1755 2717 1604 2823 1406 2823 c 0
 1108 2823 886 2527 886 2007 c 2
 886 0 l 1
 425 0 l 1
 425 1892 l 2
 425 2448 823 2908 1396 2908 c 0
 1738 2908 1972 2686 1972 2442 c 0
 1972 2254 1850 2146 1696 2146 c 0
 1563 2146 1416 2224 1416 2408 c 0
 1416 2592 1545 2682 1705 2682 c 0
 1739 2682 1762 2670 1768 2670 c 1
2922 2874 m 1
 2907 2921 2786 3031 2588 3031 c 0
 2260 3031 2110 2732 2110 2212 c 2
 2110 0 l 1
 1648 0 l 1
 1648 2097 l 2
 1648 2655 2015 3113 2578 3113 c 0
 2920 3113 3112 2890 3112 2646 c 0
 3112 2458 2993 2352 2839 2352 c 0
 2706 2352 2558 2430 2558 2614 c 0
 2558 2798 2686 2886 2846 2886 c 0
 2880 2886 2916 2874 2922 2874 c 1
EndSplineSet
Ligature2: "'liga' Standard Ligatures lookup 0-1" f f l
LCarets2: 2 0 0
EndChar

StartChar: ogonek
Encoding: 731 731 295
GlifName: ogonek
Width: 2252
Flags: HMW
LayerCount: 2
Fore
SplineSet
1614 -484 m 1
 1553 -599 1445 -782 1123 -782 c 0
 883 -782 650 -676 650 -430 c 0
 650 -102 1011 89 1292 176 c 1
 1308 131 l 1
 1202 71 1114 -111 1114 -307 c 0
 1114 -489 1172 -646 1300 -646 c 0
 1432 -646 1505 -540 1550 -454 c 1
 1614 -484 l 1
EndSplineSet
EndChar

StartChar: dotlessi
Encoding: 305 305 296
GlifName: dotlessi
Width: 1207
VWidth: 4730
Flags: HMW
LayerCount: 2
Fore
SplineSet
82 82 m 1
 1126 82 l 1
 1126 0 l 1
 82 0 l 1
 82 82 l 1
369 1802 m 1
 82 1802 l 1
 82 1884 l 1
 840 1884 l 1
 840 0 l 1
 369 0 l 1
 369 1802 l 1
EndSplineSet
EndChar

StartChar: uni0237
Encoding: 567 567 297
GlifName: uni0237
Width: 1195
VWidth: 4730
Flags: HMW
LayerCount: 2
Fore
SplineSet
902 1884 m 1
 902 -49 l 2
 902 -586 688 -1065 136 -1065 c 0
 -216 -1065 -430 -857 -430 -603 c 0
 -430 -415 -300 -304 -146 -304 c 0
 -13 -304 136 -382 136 -566 c 0
 136 -750 6 -836 -174 -836 c 0
 -189 -836 -209 -832 -209 -832 c 1
 -198 -874 -76 -976 104 -976 c 0
 504 -976 430 -438 430 82 c 2
 430 1802 l 1
 61 1802 l 1
 61 1884 l 1
 902 1884 l 1
EndSplineSet
EndChar

StartChar: kgreenlandic
Encoding: 312 312 306
GlifName: kgreenlandic
Width: 2522
VWidth: 4730
Flags: HMW
LayerCount: 2
Fore
SplineSet
2275 0 m 1
 1690 0 l 1
 828 1080 l 1
 1900 1884 l 1
 2036 1884 l 1
 1252 1274 l 1
 2275 0 l 1
1368 82 m 1
 2431 82 l 1
 2431 0 l 1
 1368 0 l 1
 1368 82 l 1
2262 1802 m 1
 1348 1802 l 1
 1348 1884 l 1
 2262 1884 l 1
 2262 1802 l 1
61 82 m 1
 1156 82 l 1
 1156 0 l 1
 61 0 l 1
 61 82 l 1
430 1802 m 1
 61 1802 l 1
 61 1884 l 1
 902 1884 l 1
 902 0 l 1
 430 0 l 1
 430 1802 l 1
EndSplineSet
EndChar

StartChar: breve
Encoding: 728 728 307
GlifName: breve
Width: 1187
VWidth: 4730
Flags: HMW
LayerCount: 2
Fore
SplineSet
205 3109 m 1
 205 2913 373 2826 594 2826 c 0
 815 2826 983 2913 983 3109 c 1
 1065 3109 l 1
 1065 2787 952 2519 594 2519 c 0
 236 2519 123 2787 123 3109 c 1
 205 3109 l 1
EndSplineSet
EndChar

StartChar: thorn
Encoding: 254 254 318
GlifName: thorn
Width: 2449
VWidth: 4730
Flags: HMW
LayerCount: 2
Fore
SplineSet
758 942 m 0
 758 1565 1003 1921 1458 1921 c 0
 1904 1921 2326 1556 2326 942 c 0
 2326 328 1904 -41 1458 -41 c 0
 1003 -41 758 319 758 942 c 0
820 942 m 0
 820 352 1094 87 1336 87 c 0
 1639 87 1784 393 1784 942 c 0
 1784 1491 1643 1793 1340 1793 c 0
 1090 1793 820 1532 820 942 c 0
61 -942 m 1
 1106 -942 l 1
 1106 -1024 l 1
 61 -1024 l 1
 61 -942 l 1
348 2990 m 1
 61 2990 l 1
 61 3072 l 1
 820 3072 l 1
 820 -1024 l 1
 348 -1024 l 1
 348 2990 l 1
EndSplineSet
EndChar

StartChar: Thorn
Encoding: 222 222 319
GlifName: T_horn
Width: 2611
Flags: HMW
LayerCount: 2
Fore
SplineSet
430 3072 m 1
 942 3072 l 1
 942 0 l 1
 430 0 l 1
 430 3072 l 1
61 82 m 1
 1311 82 l 1
 1311 0 l 1
 61 0 l 1
 61 82 l 1
61 3072 m 1
 1311 3072 l 1
 1311 2990 l 1
 61 2990 l 1
 61 3072 l 1
1393 737 m 2
 860 737 l 1
 860 819 l 1
 1321 819 l 2
 1714 819 1894 1232 1894 1597 c 0
 1894 1962 1714 2376 1321 2376 c 2
 860 2376 l 1
 860 2458 l 1
 1393 2458 l 2
 2134 2458 2468 2129 2468 1597 c 0
 2468 1065 2134 737 1393 737 c 2
EndSplineSet
EndChar

StartChar: Dcroat
Encoding: 272 272 320
GlifName: D_croat
Width: 2984
Flags: HMW
LayerCount: 2
Fore
SplineSet
446 3072 m 1
 958 3072 l 1
 958 0 l 1
 446 0 l 1
 446 3072 l 1
1306 0 m 2
 77 0 l 1
 77 82 l 1
 1306 82 l 2
 1998 82 2227 760 2227 1536 c 0
 2227 2312 1958 2990 1306 2990 c 2
 77 2990 l 1
 77 3072 l 1
 1306 3072 l 2
 2250 3072 2820 2428 2820 1536 c 0
 2820 644 2209 0 1306 0 c 2
87 1536 m 1
 1396 1536 l 1
 1396 1454 l 1
 87 1454 l 1
 87 1536 l 1
EndSplineSet
EndChar

StartChar: Lslash
Encoding: 321 321 324
GlifName: L_slash
Width: 2426
Flags: HMW
LayerCount: 2
Fore
SplineSet
61 1475 m 1
 1578 2376 l 1
 1578 2273 l 1
 61 1372 l 1
 61 1475 l 1
EndSplineSet
Refer: 23 76 N 1 0 0 1 0 0 2
EndChar

StartChar: lslash
Encoding: 322 322 325
GlifName: lslash
Width: 1392
VWidth: 4730
Flags: HMW
LayerCount: 2
Fore
SplineSet
61 1597 m 1
 1332 2376 l 1
 1332 2267 l 1
 61 1489 l 1
 61 1597 l 1
EndSplineSet
Refer: 49 108 N 1 0 0 1 0 0 2
EndChar

StartChar: eth
Encoding: 240 240 329
GlifName: eth
Width: 2395
VWidth: 4730
Flags: HMW
LayerCount: 2
Fore
SplineSet
492 2580 m 1
 2264 2580 l 1
 2264 2499 l 1
 492 2499 l 1
 492 2580 l 1
2192 1270 m 0
 2192 410 1779 -41 1141 -41 c 0
 503 -41 123 410 123 1024 c 0
 123 1720 617 2012 1051 2012 c 0
 1567 2012 1706 1637 1706 1147 c 1
 1648 1147 l 1
 1648 1639 1450 1888 1161 1888 c 0
 847 1888 665 1624 665 1024 c 0
 665 506 743 41 1128 41 c 0
 1513 41 1648 547 1648 1147 c 1
 1638 1516 l 1
 1638 2221 1154 3043 430 3043 c 1
 430 3113 l 1
 1414 3113 2192 2284 2192 1270 c 0
EndSplineSet
EndChar

StartChar: OE
Encoding: 338 338 330
GlifName: O_E_
Width: 3978
Flags: HMW
LayerCount: 2
Fore
SplineSet
1618 2990 m 1025,0,0
758 1536 m 0,0,0
 758 760 956 82 1618 82 c 1,0,0
 1556 0 l 1,0,0
 725 0 164 623 164 1536 c 0,0,0
 164 2449 725 3072 1556 3072 c 1,0,0
 1618 2990 l 1,0,0
 956 2990 758 2312 758 1536 c 0,0,0
EndSplineSet
Refer: 16 69 N 1 0 0 1 1495 0 2
EndChar

StartChar: germandbls
Encoding: 223 223 332
GlifName: germandbls
Width: 2973
VWidth: 4730
Flags: HMW
LayerCount: 2
Fore
SplineSet
1528 1642 m 1
 1528 1700 l 1
 2015 1700 2150 2077 2150 2339 c 0
 2150 2634 2026 3043 1610 3043 c 0
 1082 3043 922 2552 922 1970 c 2
 922 0 l 1
 430 0 l 1
 430 2011 l 2
 430 2741 952 3113 1620 3113 c 0
 2206 3113 2688 2792 2688 2380 c 0
 2688 1950 2351 1642 1528 1642 c 1
61 82 m 1
 1290 82 l 1
 1290 0 l 1
 61 0 l 1
 61 82 l 1
2810 686 m 0
 2810 235 2395 -41 1940 -41 c 0
 1608 -41 1354 200 1354 598 c 0
 1354 797 1495 905 1659 905 c 0
 1803 905 1931 813 1931 635 c 0
 1931 473 1786 369 1646 369 c 0
 1601 369 1525 377 1476 418 c 1
 1505 224 1696 48 1898 48 c 0
 2212 48 2274 393 2274 655 c 0
 2274 1040 2179 1622 1528 1622 c 1
 1528 1679 l 1
 2515 1679 2810 1218 2810 686 c 0
EndSplineSet
EndChar

StartChar: circumflex
Encoding: 710 710 335
GlifName: circumflex
Width: 1658
Flags: HMW
LayerCount: 2
Fore
SplineSet
827 2919 m 1
 246 2611 l 1
 205 2652 l 1
 676 3154 l 1
 983 3154 l 1
 1454 2652 l 1
 1413 2611 l 1
 827 2919 l 1
EndSplineSet
EndChar

StartChar: caron
Encoding: 711 711 336
GlifName: caron
Width: 1658
Flags: HMW
LayerCount: 2
Fore
SplineSet
828 2929 m 1
 1413 3236 l 1
 1454 3195 l 1
 983 2693 l 1
 676 2693 l 1
 205 3195 l 1
 246 3236 l 1
 828 2929 l 1
EndSplineSet
EndChar

StartChar: pi
Encoding: 960 960 337
GlifName: pi
Width: 2481
VWidth: 4730
Flags: HMW
LayerCount: 2
Fore
SplineSet
2338 422 m 1
 2244 135 2072 -41 1845 -41 c 0
 1611 -41 1417 68 1417 320 c 2
 1417 1720 l 1
 1888 1720 l 1
 1888 404 l 2
 1888 322 1942 256 2040 256 c 0
 2114 256 2200 316 2278 455 c 1
 2338 422 l 1
467 -41 m 0
 279 -41 174 64 174 197 c 0
 174 527 725 387 725 1143 c 2
 725 1843 l 1
 954 1843 l 1
 954 995 l 2
 954 348 777 -41 467 -41 c 0
2256 1884 m 1
 2256 1414 l 1
 250 1414 l 1
 250 1106 l 1
 168 1106 l 1
 168 1884 l 1
 2256 1884 l 1
EndSplineSet
EndChar

StartChar: uni1E9E
Encoding: 7838 7838 338
GlifName: uni1E_9E_
Width: 3464
VWidth: 4730
Flags: HMW
LayerCount: 2
Fore
SplineSet
61 82 m 1
 1331 82 l 1
 1331 0 l 1
 61 0 l 1
 61 82 l 1
2316 1612 m 1
 2161 1652 1993 1677 1804 1700 c 1
 2738 2864 l 1
 2571 2958 2321 3026 2029 3026 c 0
 1275 3026 963 2501 963 1765 c 2
 963 0 l 1
 430 0 l 1
 430 1806 l 2
 430 2658 1127 3113 2029 3113 c 0
 2656 3113 3044 2842 3178 2696 c 1
 2316 1612 l 1
1490 396 m 1
 1524 281 1746 54 2124 54 c 0
 2586 54 2750 382 2750 798 c 0
 2750 1132 2650 1622 1804 1622 c 1
 1804 1700 l 1
 3027 1700 3302 1276 3302 804 c 0
 3302 262 2824 -41 2226 -41 c 0
 1613 -41 1331 292 1331 608 c 0
 1331 807 1460 930 1634 930 c 0
 1788 930 1906 824 1906 646 c 0
 1906 484 1766 369 1616 369 c 0
 1550 369 1506 392 1490 396 c 1
EndSplineSet
EndChar

StartChar: uni203D
Encoding: 8253 8253 339
GlifName: uni203D_
Width: 2580
Flags: HMW
LayerCount: 2
Fore
SplineSet
1581 2054 m 0
 1536 1661 1308 1211 1308 924 c 1
 1227 924 l 1
 1227 1211 1081 1661 1036 2054 c 0
 1032 2083 1032 2107 1032 2132 c 0
 1032 2247 1094 2438 1308 2438 c 0
 1522 2438 1585 2247 1585 2132 c 0
 1585 2107 1585 2083 1581 2054 c 0
276 2247 m 0
 276 2624 672 3113 1366 3113 c 0
 1984 3113 2438 2795 2438 2253 c 0
 2438 1741 1876 1372 1360 1372 c 1
 1360 1430 l 1
 1706 1475 1982 1913 1982 2294 c 0
 1982 2679 1718 2986 1272 2986 c 0
 723 2986 488 2638 436 2462 c 1
 452 2466 495 2488 561 2488 c 0
 711 2488 826 2365 826 2222 c 0
 826 2027 673 1942 551 1942 c 0
 407 1942 276 2048 276 2247 c 0
EndSplineSet
Refer: 1 46 N 1 0 0 1 795 0 2
EndChar

StartChar: R.alt
Encoding: 65536 -1 340
GlifName: R_.alt
Width: 2871
Flags: HMW
LayerCount: 2
Fore
SplineSet
1470 1565 m 2
 814 1565 l 1
 814 1618 l 1
 1418 1618 l 2
 1811 1618 2022 1848 2022 2314 c 0
 2022 2780 1811 2990 1418 2990 c 2
 77 2990 l 1
 77 3072 l 1
 1470 3072 l 2
 2119 3072 2555 2846 2555 2314 c 0
 2555 1782 2160 1565 1470 1565 c 2
77 82 m 1
 1449 82 l 1
 1449 0 l 1
 77 0 l 1
 77 82 l 1
506 3072 m 1
 1019 3072 l 1
 1019 0 l 1
 506 0 l 1
 506 3072 l 1
2832 0 m 1
 2766 0 2609 0 2462 0 c 0
 1446 0 2386 1536 1398 1536 c 2
 814 1536 l 1
 814 1577 l 1
 1602 1577 l 2
 2996 1577 2194 82 2688 82 c 0
 2774 82 2775 82 2832 82 c 1
 2832 0 l 1
EndSplineSet
EndChar

StartChar: J.alt
Encoding: 65537 -1 341
GlifName: J_.alt
Width: 2404
Flags: HMW
LayerCount: 2
Back
SplineSet
1191.93554688 3072 m 5
 2482.17578125 3072 l 5
 2482.17578125 2990.08007812 l 5
 1191.93554688 2990.08007812 l 5
 1191.93554688 3072 l 5
1683.45605469 3072 m 5
 2072.57617188 3072 l 5
 2072.57617188 1146.87988281 l 6
 2072.57617188 491.51953125 1748.9921875 -40.9599609375 1089.53613281 -40.9599609375 c 4
 610.303710938 -40.9599609375 409.599609375 307.200195312 409.599609375 593.919921875 c 4
 409.599609375 847.872070312 561.15234375 983.040039062 724.9921875 983.040039062 c 4
 868.3515625 983.040039062 995.328125 909.311523438 995.328125 720.896484375 c 4
 995.328125 577.536132812 864.255859375 462.84765625 724.9921875 462.84765625 c 4
 638.975585938 462.84765625 536.576171875 516.095703125 495.616210938 585.727539062 c 5
 499.711914062 335.872070312 655.360351562 40.9599609375 1089.53613281 40.9599609375 c 4
 1585.15234375 40.9599609375 1683.45605469 450.559570312 1683.45605469 1024 c 6
 1683.45605469 3072 l 5
EndSplineSet
Fore
SplineSet
920 3072 m 1
 2344 3072 l 1
 2344 2990 l 1
 920 2990 l 1
 920 3072 l 1
1422 3072 m 1
 1934 3072 l 1
 1934 1034 l 1
 1872 420 1539 -62 849 -62 c 0
 339 -62 77 307 77 635 c 0
 77 920 259 1076 454 1076 c 0
 628 1076 776 970 776 756 c 0
 776 582 625 442 446 442 c 0
 340 442 237 498 179 572 c 1
 201 314 404 22 828 22 c 0
 1293 22 1422 389 1422 962 c 2
 1422 3072 l 1
EndSplineSet
EndChar

StartChar: four.alt
Encoding: 65538 -1 342
GlifName: four.alt
Width: 2559
VWidth: 4730
Flags: HMW
LayerCount: 2
Fore
SplineSet
2294 82 m 1
 2294 0 l 1
 1085 0 l 1
 1085 82 l 1
 2294 82 l 1
1987 2040 m 1
 1987 11 l 1
 1475 11 l 1
 1475 1907 l 1
 1629 1907 1885 1978 1987 2040 c 1
213 840 m 1
 2355 840 l 1
 2355 758 l 1
 61 758 l 1
 634 1577 1290 2458 1372 3072 c 1
 1917 3072 l 1
 1839 2427 791 1635 213 840 c 1
EndSplineSet
EndChar

StartChar: fj.lig
Encoding: 65539 -1 343
GlifName: fj.lig
Width: 2367
VWidth: 4730
Flags: HMW
LayerCount: 2
Back
SplineSet
40.9599609375 81.919921875 m 5
 1515.51953125 81.919921875 l 5
 1515.51953125 0 l 5
 40.9599609375 0 l 5
 40.9599609375 81.919921875 l 5
409.599609375 2097.15234375 m 2
 409.599609375 2756.60839844 929.791992188 3112.95996094 1748.9921875 3112.95996094 c 0
 2203.6484375 3112.95996094 2498.55957031 2859.0078125 2498.55957031 2584.57617188 c 0
 2498.55957031 2334.71972656 2347.0078125 2166.78417969 2101.24804688 2166.78417969 c 0
 1875.96777344 2166.78417969 1667.07226562 2306.04785156 1667.07226562 2551.80761719 c 0
 1667.07226562 2797.56835938 1826.81640625 2949.12011719 2048 2949.12011719 c 0
 2146.30371094 2949.12011719 2199.55175781 2916.3515625 2199.55175781 2916.3515625 c 1
 2134.015625 2957.31152344 1982.46386719 3026.94433594 1748.9921875 3026.94433594 c 0
 1298.43164062 3026.94433594 1146.87988281 2732.03222656 1146.87988281 2211.83984375 c 2
 1146.87988281 0 l 1
 409.599609375 0 l 1
 409.599609375 2097.15234375 l 2
2498.55957031 1884.16015625 m 1
 2498.55957031 -49.15234375 l 2
 2498.55957031 -585.727539062 1978.36816406 -1064.95996094 1363.96777344 -1064.95996094 c 0
 950.272460938 -1064.95996094 614.400390625 -872.448242188 614.400390625 -557.055664062 c 0
 614.400390625 -307.200195312 806.912109375 -118.784179688 1052.671875 -118.784179688 c 0
 1277.95214844 -118.784179688 1486.84765625 -258.047851562 1486.84765625 -503.807617188 c 0
 1486.84765625 -749.568359375 1327.10351562 -897.024414062 1024 -897.024414062 c 0
 1011.71191406 -897.024414062 995.328125 -897.024414062 995.328125 -897.024414062 c 1
 1040.38378906 -917.50390625 1122.30371094 -966.65625 1302.52832031 -966.65625 c 0
 1794.04785156 -966.65625 1720.3203125 -438.272460938 1720.3203125 81.919921875 c 2
 1720.3203125 1802.24023438 l 1
 40.9599609375 1802.24023438 l 1
 40.9599609375 1884.16015625 l 1
 2498.55957031 1884.16015625 l 1
EndSplineSet
Fore
SplineSet
56 82 m 1
 1270 82 l 1
 1270 0 l 1
 56 0 l 1
 56 82 l 1
2038 -49 m 2
 2038 -586 1824 -1065 1272 -1065 c 0
 920 -1065 706 -857 706 -603 c 0
 706 -415 838 -304 992 -304 c 0
 1125 -304 1272 -382 1272 -566 c 0
 1272 -750 1142 -836 962 -836 c 0
 950 -836 934 -832 928 -832 c 1
 939 -874 1062 -976 1242 -976 c 0
 1642 -976 1567 -438 1567 82 c 2
 1567 1802 l 1
 56 1802 l 1
 56 1884 l 1
 2038 1884 l 1
 2038 -49 l 2
1852 2874 m 1
 1836 2921 1706 3030 1426 3030 c 0
 1006 3030 886 2732 886 2212 c 2
 886 0 l 1
 425 0 l 1
 425 2097 l 2
 425 2665 761 3113 1426 3113 c 0
 1850 3113 2054 2890 2054 2646 c 0
 2054 2458 1932 2352 1778 2352 c 0
 1645 2352 1498 2430 1498 2614 c 0
 1498 2798 1627 2884 1787 2884 c 0
 1821 2884 1846 2874 1852 2874 c 1
EndSplineSet
LCarets2: 1 0
Ligature2: "'liga' Standard Ligatures lookup 0-1" f j
EndChar

StartChar: uni2116
Encoding: 8470 8470 344
GlifName: uni2116
Width: 4570
Flags: HW
LayerCount: 2
Fore
SplineSet
3420 2335 m 0
 3420 1868 3512 1638 3734 1638 c 0
 3956 1638 4046 1868 4046 2335 c 0
 4046 2802 3956 3031 3734 3031 c 0
 3512 3031 3420 2802 3420 2335 c 0
3010 2335 m 0
 3010 2837 3310 3113 3734 3113 c 0
 4158 3113 4457 2837 4457 2335 c 0
 4457 1833 4158 1556 3734 1556 c 0
 3310 1556 3010 1833 3010 2335 c 0
EndSplineSet
Refer: 85 45 N 1 0 0 1 2997 164 2
Refer: 25 78 N 1 0 0 1 0 0 2
EndChar

StartChar: Euro
Encoding: 8364 8364 345
GlifName: E_uro
Width: 2938
Flags: HW
LayerCount: 2
Fore
SplineSet
2550 2734 m 1
 2465 2846 2266 3022 1942 3022 c 0
 1301 3022 1086 2290 1086 1536 c 0
 1086 700 1356 68 1854 68 c 0
 2243 68 2514 389 2616 729 c 1
 2706 729 l 1
 2600 332 2290 -41 1774 -41 c 0
 1105 -41 481 594 481 1536 c 0
 481 2396 1026 3113 1880 3113 c 0
 2411 3113 2734 2746 2734 2502 c 0
 2734 2303 2603 2198 2449 2198 c 0
 2316 2198 2165 2283 2165 2478 c 0
 2165 2652 2299 2755 2449 2755 c 0
 2494 2755 2530 2742 2550 2734 c 1
EndSplineSet
Refer: 88 61 N 1 0 0 1 -123 -287 2
EndChar

